<svg xmlns="http://www.w3.org/2000/svg" xmlns:xlink="http://www.w3.org/1999/xlink" width="450" zoomAndPan="magnify" viewBox="0 0 337.5 112.499997" height="150" preserveAspectRatio="xMidYMid meet" version="1.0"><defs><clipPath id="9b3da2c8d8"><path d="M 17.097656 2 L 320.644531 2 L 320.644531 86.761719 L 17.097656 86.761719 Z M 17.097656 2 " clip-rule="nonzero"/></clipPath><clipPath id="0bfb6fef94"><path d="M 17.097656 1.898438 L 320.644531 1.898438 L 320.644531 77.667969 L 17.097656 77.667969 Z M 17.097656 1.898438 " clip-rule="nonzero"/></clipPath><clipPath id="70750c2720"><path d="M 126.238281 57.210938 L 250 57.210938 L 250 110.328125 L 126.238281 110.328125 Z M 126.238281 57.210938 " clip-rule="nonzero"/></clipPath><clipPath id="4df9d281be"><path d="M 17.097656 38 L 320.644531 38 L 320.644531 77.667969 L 17.097656 77.667969 Z M 17.097656 38 " clip-rule="nonzero"/></clipPath></defs><g clip-path="url(#9b3da2c8d8)"><path fill="#23295a" d="M 320.644531 57.53125 L 17.097656 57.53125 C 17.097656 57.53125 25.734375 7.371094 51.125 2.671875 C 62.5625 0.554688 70 10.304688 76.753906 20.058594 C 84.988281 31.957031 92.203125 43.851562 104.410156 34.191406 C 117.300781 23.988281 121.457031 28.335938 126.542969 32.683594 C 130.222656 35.828125 134.386719 38.96875 142.683594 36.617188 C 160.117188 31.617188 202.863281 86.472656 253.417969 86.472656 C 288.660156 86.472656 320.644531 57.53125 320.644531 57.53125 " fill-opacity="1" fill-rule="nonzero"/></g><g clip-path="url(#0bfb6fef94)"><path fill="#ae2689" d="M 17.097656 57.53125 L 320.644531 57.53125 C 320.644531 57.53125 289.039062 8.050781 266.300781 30.78125 C 249.628906 47.453125 226.964844 93.75 200.132812 71.925781 C 171.410156 48.515625 156.097656 22.597656 124.492188 32.90625 C 107.601562 38.414062 101.839844 28.292969 96.246094 18.175781 C 91.371094 9.363281 86.628906 0.546875 74.777344 2.066406 C 49.308594 5.324219 49.15625 57.53125 17.097656 57.53125 " fill-opacity="1" fill-rule="nonzero"/></g><g clip-path="url(#70750c2720)"><path fill="#f794c5" d="M 225.964844 110.324219 C 224.566406 110.328125 223.113281 110.160156 221.585938 109.8125 C 191.769531 103.019531 188.910156 63.957031 165.785156 63.957031 C 163.628906 63.957031 161.296875 64.296875 158.75 65.035156 C 155.703125 65.914062 152.792969 66.308594 150.003906 66.308594 C 141.242188 66.308594 133.636719 62.417969 126.347656 57.53125 L 182.519531 57.53125 C 184.222656 58.710938 185.964844 59.90625 187.738281 61.101562 C 191.625 64.675781 195.71875 68.332031 200.132812 71.925781 C 205.089844 75.957031 209.898438 77.664062 214.558594 77.664062 C 215.15625 77.664062 215.75 77.636719 216.34375 77.582031 C 226.90625 82.375 238.144531 85.789062 249.820312 86.382812 C 244.585938 99.257812 237.386719 110.324219 225.964844 110.324219 " fill-opacity="1" fill-rule="nonzero"/></g><path fill="#842e70" d="M 249.820312 86.382812 C 238.144531 85.789062 226.90625 82.375 216.34375 77.582031 C 226.550781 76.632812 236 67.738281 244.570312 57.53125 L 259.472656 57.53125 C 257.429688 63.390625 255.308594 71.042969 252.679688 78.691406 C 251.792969 81.277344 250.839844 83.867188 249.820312 86.382812 M 187.738281 61.101562 C 185.964844 59.90625 184.222656 58.710938 182.519531 57.53125 L 183.886719 57.53125 C 185.148438 58.707031 186.433594 59.902344 187.738281 61.101562 M 17.097656 57.53125 C 17.097656 57.53125 26.730469 51.765625 35.550781 49.820312 C 30.722656 54.484375 24.839844 57.53125 17.097656 57.53125 " fill-opacity="1" fill-rule="nonzero"/><g clip-path="url(#4df9d281be)"><path fill="#ce2b87" d="M 214.558594 77.664062 C 209.898438 77.664062 205.089844 75.957031 200.132812 71.925781 C 195.71875 68.332031 191.625 64.675781 187.738281 61.101562 C 186.433594 59.902344 185.148438 58.707031 183.886719 57.53125 L 244.570312 57.53125 C 236 67.738281 226.550781 76.632812 216.34375 77.582031 C 215.75 77.636719 215.15625 77.664062 214.558594 77.664062 M 320.644531 57.53125 L 259.472656 57.53125 C 261.652344 51.273438 263.746094 47.054688 266.285156 47.054688 C 266.679688 47.054688 267.089844 47.160156 267.511719 47.378906 C 270.003906 48.652344 272.105469 49.164062 273.90625 49.164062 C 277.679688 49.164062 280.121094 46.910156 281.996094 44.65625 C 283.867188 42.402344 285.167969 40.148438 286.664062 40.148438 C 287.503906 40.148438 288.402344 40.859375 289.492188 42.679688 C 295.332031 52.527344 320.644531 57.53125 320.644531 57.53125 M 126.347656 57.53125 L 17.097656 57.53125 C 24.839844 57.53125 30.722656 54.484375 35.550781 49.820312 C 37.339844 49.421875 39.09375 49.1875 40.730469 49.1875 C 43.289062 49.1875 45.554688 49.769531 47.1875 51.242188 C 48.492188 52.421875 49.65625 52.917969 50.816406 52.917969 C 56.601562 52.917969 62.339844 40.566406 85.308594 38.359375 C 86.289062 38.261719 87.253906 38.210938 88.207031 38.210938 C 99.730469 38.210938 109.292969 45.238281 118.917969 52.261719 C 121.378906 54.054688 123.84375 55.851562 126.347656 57.53125 " fill-opacity="1" fill-rule="nonzero"/></g></svg>