<svg xmlns="http://www.w3.org/2000/svg" xmlns:xlink="http://www.w3.org/1999/xlink" width="500" zoomAndPan="magnify" viewBox="0 0 375 374.999991" height="500" preserveAspectRatio="xMidYMid meet" version="1.0"><defs><g/><clipPath id="e208071910"><path d="M 108 186 L 252 186 L 252 337.222656 L 108 337.222656 Z M 108 186 " clip-rule="nonzero"/></clipPath><clipPath id="39321444c3"><path d="M 83 113.722656 L 122 113.722656 L 122 157 L 83 157 Z M 83 113.722656 " clip-rule="nonzero"/></clipPath><clipPath id="5e0f8b9ddc"><path d="M 48.621094 336 L 326.121094 336 L 326.121094 337.222656 L 48.621094 337.222656 Z M 48.621094 336 " clip-rule="nonzero"/></clipPath><clipPath id="841c055488"><path d="M 238.367188 20.742188 L 345.617188 20.742188 L 345.617188 77.742188 L 238.367188 77.742188 Z M 238.367188 20.742188 " clip-rule="nonzero"/></clipPath></defs><path fill="#e6e6e6" d="M 206.695312 311.449219 C 204.777344 308.761719 202.183594 306.800781 198.917969 306.066406 C 196.074219 305.421875 193.148438 305.53125 190.253906 305.554688 L 153.679688 305.835938 C 150.546875 305.859375 147.546875 308.574219 147.691406 311.824219 C 147.835938 315.050781 150.324219 317.839844 153.679688 317.8125 C 164.394531 317.730469 175.109375 317.648438 185.820312 317.566406 C 188.347656 317.546875 190.875 317.5 193.402344 317.507812 C 193.96875 317.511719 194.53125 317.539062 195.101562 317.546875 C 195.238281 317.546875 195.335938 317.546875 195.40625 317.542969 C 195.421875 317.550781 195.4375 317.554688 195.460938 317.5625 C 195.757812 317.640625 196.058594 317.699219 196.359375 317.773438 C 196.253906 317.777344 196.550781 317.964844 196.699219 318.027344 C 196.71875 318.066406 196.765625 318.136719 196.835938 318.25 C 196.9375 318.441406 197.238281 319.019531 197.253906 319 C 197.707031 320.148438 198.078125 321.320312 198.371094 322.515625 C 199.066406 325.152344 199.21875 325.707031 199.320312 328.179688 C 199.445312 331.304688 201.984375 334.316406 205.308594 334.167969 C 208.445312 334.027344 211.4375 331.53125 211.300781 328.179688 C 211.070312 322.53125 210.078125 316.183594 206.695312 311.449219 Z M 206.695312 311.449219 " fill-opacity="1" fill-rule="nonzero"/><path fill="#e6e6e6" d="M 155.832031 324.960938 C 155.144531 320.800781 154.46875 316.632812 153.769531 312.476562 C 153.058594 308.257812 151.609375 304.390625 148.324219 301.621094 C 147.445312 300.882812 146.535156 300.191406 145.621094 299.503906 C 145.300781 299.261719 144.980469 299.019531 144.664062 298.769531 C 144.644531 298.757812 144.632812 298.746094 144.613281 298.734375 C 144.578125 298.703125 144.539062 298.667969 144.480469 298.621094 C 143.113281 297.464844 141.789062 296.253906 140.53125 294.96875 C 139.410156 293.824219 138.339844 292.632812 137.320312 291.394531 C 137.0625 291.085938 136.8125 290.773438 136.5625 290.457031 C 136.519531 290.402344 136.289062 290.105469 136.140625 289.910156 C 135.996094 289.71875 135.738281 289.367188 135.695312 289.304688 C 135.40625 288.894531 135.121094 288.480469 134.839844 288.0625 C 132.929688 285.199219 131.285156 282.191406 129.902344 279.035156 C 129.765625 278.722656 129.632812 278.410156 129.503906 278.09375 C 129.46875 278 129.421875 277.875 129.363281 277.710938 C 129.085938 276.945312 128.808594 276.183594 128.554688 275.414062 C 128.015625 273.773438 127.554688 272.109375 127.164062 270.421875 C 126.972656 269.589844 126.800781 268.75 126.648438 267.910156 C 126.566406 267.476562 126.492188 267.042969 126.425781 266.605469 C 126.414062 266.535156 126.347656 266.066406 126.308594 265.800781 C 126.277344 265.535156 126.222656 265.0625 126.214844 264.988281 C 126.171875 264.550781 126.132812 264.113281 126.097656 263.671875 C 126.023438 262.6875 125.96875 261.695312 125.945312 260.703125 C 125.898438 258.941406 125.929688 257.179688 126.039062 255.417969 C 126.101562 254.429688 126.1875 253.441406 126.296875 252.457031 C 126.304688 252.394531 126.308594 252.347656 126.3125 252.304688 C 126.320312 252.261719 126.328125 252.210938 126.335938 252.148438 C 126.417969 251.605469 126.503906 251.058594 126.597656 250.519531 C 126.957031 248.457031 127.425781 246.421875 127.996094 244.414062 C 128.269531 243.460938 128.5625 242.519531 128.882812 241.585938 C 129.023438 241.171875 129.171875 240.757812 129.320312 240.34375 C 129.3125 240.371094 129.765625 239.214844 129.769531 239.175781 C 131.566406 234.9375 134.5 231.070312 134.503906 226.253906 C 134.507812 222.996094 131.75 219.871094 128.515625 220.019531 C 128.117188 220.035156 127.722656 220.089844 127.332031 220.179688 C 126.945312 220.269531 126.566406 220.398438 126.203125 220.5625 C 125.839844 220.726562 125.492188 220.921875 125.164062 221.152344 C 124.839844 221.382812 124.539062 221.640625 124.261719 221.929688 C 123.984375 222.214844 123.738281 222.527344 123.519531 222.863281 C 123.304688 223.199219 123.121094 223.550781 122.972656 223.921875 C 122.824219 224.292969 122.710938 224.675781 122.636719 225.066406 C 122.5625 225.460938 122.523438 225.855469 122.527344 226.253906 C 122.527344 226.328125 122.523438 226.390625 122.523438 226.453125 C 122.496094 226.554688 122.46875 226.636719 122.445312 226.710938 C 122.097656 227.472656 121.667969 228.195312 121.285156 228.9375 C 120.230469 230.96875 119.332031 233.0625 118.480469 235.191406 C 117.082031 238.664062 116.015625 242.234375 115.285156 245.90625 C 113.691406 253.996094 113.570312 262.113281 114.925781 270.246094 C 117.246094 284.398438 124.90625 297.945312 135.554688 307.050781 C 136.476562 307.84375 137.425781 308.605469 138.378906 309.355469 C 138.777344 309.664062 139.175781 309.96875 139.574219 310.269531 C 139.765625 310.414062 140.550781 311.03125 140.203125 310.730469 C 140.945312 311.363281 141.257812 311.683594 141.449219 312.148438 C 141.476562 312.257812 141.515625 312.402344 141.566406 312.601562 C 141.699219 313.128906 141.828125 313.652344 141.933594 314.1875 C 142.859375 318.847656 143.503906 323.585938 144.277344 328.273438 C 144.8125 331.496094 148.78125 333.59375 151.648438 332.628906 C 154.984375 331.503906 156.402344 328.414062 155.832031 324.960938 Z M 155.832031 324.960938 " fill-opacity="1" fill-rule="nonzero"/><g clip-path="url(#e208071910)"><path fill="#3f3d56" d="M 207.300781 337.046875 C 206.679688 337.050781 206.0625 336.988281 205.449219 336.871094 C 204.839844 336.75 204.246094 336.574219 203.667969 336.335938 C 203.09375 336.097656 202.546875 335.808594 202.027344 335.464844 C 201.507812 335.121094 201.027344 334.730469 200.585938 334.292969 C 200.140625 333.851562 199.746094 333.375 199.398438 332.859375 C 199.050781 332.34375 198.757812 331.796875 198.515625 331.222656 C 198.273438 330.648438 198.09375 330.054688 197.96875 329.445312 C 197.84375 328.835938 197.78125 328.21875 197.777344 327.597656 L 197.777344 320.765625 C 190.625 321.566406 166.125 321.382812 159.105469 320.253906 L 159.105469 327.324219 C 159.097656 327.945312 159.035156 328.5625 158.910156 329.171875 C 158.78125 329.78125 158.601562 330.371094 158.359375 330.945312 C 158.117188 331.519531 157.820312 332.0625 157.472656 332.578125 C 157.125 333.097656 156.730469 333.574219 156.289062 334.011719 C 155.847656 334.449219 155.367188 334.839844 154.847656 335.183594 C 154.332031 335.527344 153.785156 335.820312 153.207031 336.058594 C 152.632812 336.292969 152.039062 336.472656 151.429688 336.59375 C 150.816406 336.714844 150.203125 336.773438 149.578125 336.773438 C 148.957031 336.773438 148.339844 336.714844 147.730469 336.59375 C 147.121094 336.472656 146.527344 336.292969 145.949219 336.058594 C 145.375 335.820312 144.828125 335.527344 144.308594 335.183594 C 143.792969 334.839844 143.3125 334.449219 142.871094 334.011719 C 142.425781 333.574219 142.03125 333.097656 141.683594 332.578125 C 141.335938 332.0625 141.042969 331.519531 140.800781 330.945312 C 140.558594 330.371094 140.375 329.78125 140.25 329.171875 C 140.125 328.5625 140.058594 327.945312 140.054688 327.324219 L 140.054688 313.441406 C 137.6875 312.128906 135.417969 310.660156 133.246094 309.046875 C 131.074219 307.429688 129.015625 305.675781 127.078125 303.789062 C 125.136719 301.898438 123.332031 299.890625 121.660156 297.761719 C 119.988281 295.632812 118.464844 293.402344 117.085938 291.070312 C 115.710938 288.738281 114.496094 286.324219 113.441406 283.832031 C 112.386719 281.339844 111.5 278.785156 110.78125 276.175781 C 110.066406 273.566406 109.527344 270.917969 109.164062 268.234375 C 108.796875 265.554688 108.613281 262.859375 108.605469 260.152344 C 108.605469 241.503906 117.0625 224.105469 131.804688 212.421875 C 134.1875 210.523438 136.695312 208.816406 139.332031 207.292969 C 141.96875 205.773438 144.707031 204.453125 147.539062 203.339844 C 150.371094 202.222656 153.273438 201.324219 156.238281 200.640625 C 159.207031 199.957031 162.207031 199.496094 165.242188 199.257812 C 166.902344 199.125 168.570312 199.0625 170.199219 199.0625 C 175.949219 199.0625 201.878906 199.949219 208.386719 201.820312 L 223.222656 187.101562 C 223.445312 186.878906 223.710938 186.734375 224.023438 186.675781 C 224.332031 186.613281 224.632812 186.640625 224.925781 186.761719 C 225.21875 186.878906 225.457031 187.070312 225.632812 187.332031 C 225.808594 187.597656 225.894531 187.886719 225.894531 188.203125 L 225.894531 190.542969 L 228.78125 187.683594 C 229.003906 187.457031 229.269531 187.316406 229.582031 187.253906 C 229.890625 187.191406 230.191406 187.222656 230.484375 187.34375 C 230.777344 187.460938 231.015625 187.648438 231.191406 187.914062 C 231.367188 188.175781 231.457031 188.464844 231.453125 188.785156 L 231.453125 214.929688 C 232.378906 215.765625 233.277344 216.628906 234.152344 217.519531 C 235.023438 218.40625 235.871094 219.324219 236.6875 220.265625 C 237.503906 221.207031 238.292969 222.171875 239.050781 223.164062 C 239.804688 224.152344 240.53125 225.164062 241.230469 226.199219 C 241.925781 227.234375 242.585938 228.289062 243.21875 229.367188 C 243.847656 230.441406 244.445312 231.535156 245.007812 232.648438 C 245.574219 233.757812 246.101562 234.886719 246.597656 236.03125 C 247.089844 237.175781 247.546875 238.335938 247.972656 239.507812 C 248.394531 240.679688 248.78125 241.863281 249.132812 243.0625 C 249.480469 244.257812 249.796875 245.464844 250.070312 246.679688 C 250.347656 247.894531 250.585938 249.117188 250.789062 250.347656 C 250.988281 251.578125 251.152344 252.8125 251.277344 254.054688 C 251.402344 255.292969 251.488281 256.535156 251.539062 257.78125 C 251.589844 259.027344 251.597656 260.273438 251.570312 261.519531 C 251.542969 262.765625 251.476562 264.011719 251.375 265.253906 C 251.269531 266.496094 251.128906 267.734375 250.949219 268.964844 C 250.769531 270.199219 250.550781 271.425781 250.296875 272.648438 C 250.039062 273.867188 249.746094 275.078125 249.417969 276.28125 C 249.089844 277.484375 248.722656 278.671875 248.320312 279.851562 C 247.914062 281.03125 247.476562 282.199219 247.003906 283.351562 C 246.527344 284.503906 246.019531 285.640625 245.476562 286.765625 C 244.929688 287.886719 244.351562 288.988281 243.738281 290.074219 C 243.128906 291.160156 242.484375 292.226562 241.804688 293.273438 C 241.128906 294.320312 240.417969 295.34375 239.679688 296.347656 C 238.9375 297.351562 238.167969 298.332031 237.367188 299.285156 C 236.566406 300.242188 235.738281 301.171875 234.878906 302.078125 C 234.019531 302.980469 233.136719 303.859375 232.226562 304.710938 C 231.3125 305.558594 230.375 306.382812 229.414062 307.175781 C 228.453125 307.96875 227.464844 308.730469 226.457031 309.464844 C 225.449219 310.195312 224.417969 310.898438 223.367188 311.566406 C 222.3125 312.234375 221.242188 312.871094 220.152344 313.476562 C 219.058594 314.078125 217.953125 314.648438 216.824219 315.183594 L 216.824219 327.597656 C 216.824219 328.21875 216.757812 328.835938 216.632812 329.445312 C 216.511719 330.054688 216.328125 330.648438 216.085938 331.222656 C 215.847656 331.796875 215.550781 332.34375 215.203125 332.859375 C 214.855469 333.375 214.460938 333.851562 214.019531 334.292969 C 213.574219 334.730469 213.09375 335.121094 212.578125 335.464844 C 212.058594 335.808594 211.507812 336.097656 210.933594 336.335938 C 210.355469 336.574219 209.761719 336.75 209.152344 336.871094 C 208.542969 336.988281 207.925781 337.050781 207.300781 337.046875 Z M 198.527344 319.917969 L 198.527344 327.597656 C 198.53125 328.171875 198.589844 328.738281 198.707031 329.296875 C 198.824219 329.859375 198.992188 330.40625 199.214844 330.933594 C 199.4375 331.460938 199.707031 331.960938 200.03125 332.4375 C 200.351562 332.910156 200.714844 333.351562 201.121094 333.753906 C 201.527344 334.15625 201.96875 334.519531 202.449219 334.835938 C 202.925781 335.152344 203.429688 335.417969 203.960938 335.636719 C 204.488281 335.855469 205.035156 336.019531 205.597656 336.132812 C 206.160156 336.242188 206.726562 336.296875 207.300781 336.296875 C 207.875 336.296875 208.441406 336.242188 209.003906 336.132812 C 209.566406 336.019531 210.113281 335.855469 210.644531 335.636719 C 211.171875 335.417969 211.675781 335.152344 212.15625 334.835938 C 212.632812 334.519531 213.074219 334.15625 213.480469 333.753906 C 213.886719 333.351562 214.253906 332.910156 214.574219 332.4375 C 214.894531 331.960938 215.164062 331.460938 215.386719 330.933594 C 215.609375 330.40625 215.78125 329.859375 215.894531 329.296875 C 216.011719 328.738281 216.070312 328.171875 216.078125 327.597656 L 216.078125 314.710938 L 216.289062 314.609375 C 221.367188 312.199219 226.023438 309.144531 230.253906 305.449219 C 234.484375 301.75 238.132812 297.542969 241.199219 292.832031 C 242.164062 291.347656 243.0625 289.820312 243.894531 288.25 C 244.726562 286.683594 245.488281 285.082031 246.175781 283.449219 C 246.867188 281.8125 247.480469 280.148438 248.023438 278.460938 C 248.5625 276.769531 249.03125 275.0625 249.421875 273.332031 C 249.808594 271.597656 250.121094 269.855469 250.359375 268.097656 C 250.59375 266.335938 250.75 264.570312 250.828125 262.800781 C 250.90625 261.027344 250.90625 259.253906 250.828125 257.484375 C 250.75 255.710938 250.589844 253.945312 250.355469 252.1875 C 250.121094 250.425781 249.808594 248.683594 249.417969 246.953125 C 249.027344 245.222656 248.5625 243.511719 248.019531 241.820312 C 247.476562 240.132812 246.863281 238.46875 246.171875 236.835938 C 245.484375 235.199219 244.722656 233.601562 243.890625 232.03125 C 243.058594 230.464844 242.160156 228.9375 241.191406 227.449219 C 240.226562 225.960938 239.195312 224.519531 238.101562 223.125 C 237.003906 221.726562 235.851562 220.382812 234.636719 219.089844 C 233.421875 217.796875 232.152344 216.558594 230.828125 215.375 L 230.703125 215.265625 L 230.703125 188.785156 C 230.707031 188.617188 230.660156 188.46875 230.570312 188.332031 C 230.476562 188.195312 230.355469 188.097656 230.203125 188.035156 C 229.863281 187.890625 229.566406 187.949219 229.308594 188.214844 L 225.144531 192.339844 L 225.144531 188.203125 C 225.148438 188.039062 225.101562 187.886719 225.011719 187.75 C 224.917969 187.613281 224.796875 187.515625 224.640625 187.457031 C 224.304688 187.3125 224.007812 187.371094 223.75 187.636719 L 208.59375 202.667969 L 208.378906 202.597656 C 202.332031 200.707031 175.992188 199.808594 170.199219 199.808594 C 168.589844 199.808594 166.941406 199.875 165.300781 200.003906 C 162.304688 200.238281 159.339844 200.691406 156.40625 201.367188 C 153.476562 202.046875 150.613281 202.933594 147.8125 204.035156 C 145.015625 205.136719 142.3125 206.441406 139.707031 207.945312 C 137.101562 209.445312 134.621094 211.136719 132.269531 213.007812 C 117.707031 224.546875 109.355469 241.730469 109.355469 260.152344 C 109.363281 262.835938 109.546875 265.503906 109.910156 268.164062 C 110.269531 270.824219 110.808594 273.445312 111.519531 276.03125 C 112.230469 278.617188 113.113281 281.148438 114.164062 283.617188 C 115.210938 286.085938 116.421875 288.476562 117.789062 290.785156 C 119.15625 293.09375 120.671875 295.300781 122.332031 297.40625 C 123.996094 299.511719 125.792969 301.5 127.71875 303.367188 C 129.644531 305.234375 131.6875 306.964844 133.847656 308.558594 C 136.003906 310.15625 138.257812 311.601562 140.609375 312.894531 L 140.804688 313 L 140.804688 327.324219 C 140.808594 327.898438 140.867188 328.464844 140.984375 329.023438 C 141.101562 329.585938 141.269531 330.132812 141.492188 330.660156 C 141.714844 331.1875 141.988281 331.6875 142.308594 332.164062 C 142.628906 332.636719 142.992188 333.078125 143.398438 333.480469 C 143.804688 333.882812 144.25 334.246094 144.726562 334.5625 C 145.203125 334.878906 145.707031 335.144531 146.238281 335.363281 C 146.769531 335.582031 147.3125 335.746094 147.875 335.859375 C 148.4375 335.96875 149.007812 336.023438 149.578125 336.023438 C 150.152344 336.023438 150.71875 335.96875 151.28125 335.859375 C 151.84375 335.746094 152.390625 335.582031 152.921875 335.363281 C 153.449219 335.144531 153.953125 334.878906 154.433594 334.5625 C 154.910156 334.246094 155.351562 333.882812 155.757812 333.480469 C 156.164062 333.078125 156.53125 332.636719 156.851562 332.164062 C 157.171875 331.6875 157.445312 331.1875 157.667969 330.660156 C 157.886719 330.132812 158.058594 329.585938 158.171875 329.023438 C 158.289062 328.464844 158.351562 327.898438 158.355469 327.324219 L 158.355469 319.359375 L 158.796875 319.441406 C 165.109375 320.628906 191.679688 320.816406 198.101562 319.972656 Z M 198.527344 319.917969 " fill-opacity="1" fill-rule="nonzero"/></g><path fill="#ffbb33" d="M 156.546875 158.304688 L 115.085938 170.757812 C 114.761719 170.859375 114.445312 170.988281 114.144531 171.148438 C 113.84375 171.308594 113.5625 171.496094 113.300781 171.710938 C 113.035156 171.925781 112.792969 172.167969 112.578125 172.429688 C 112.359375 172.691406 112.171875 172.972656 112.011719 173.273438 C 111.847656 173.574219 111.71875 173.886719 111.617188 174.214844 C 111.519531 174.539062 111.453125 174.871094 111.417969 175.210938 C 111.382812 175.550781 111.382812 175.890625 111.414062 176.230469 C 111.449219 176.570312 111.515625 176.902344 111.613281 177.226562 C 111.710938 177.554688 111.839844 177.867188 112 178.167969 C 112.160156 178.46875 112.347656 178.753906 112.5625 179.015625 C 112.777344 179.28125 113.015625 179.523438 113.28125 179.738281 C 113.542969 179.957031 113.824219 180.144531 114.125 180.308594 C 114.425781 180.46875 114.738281 180.601562 115.0625 180.699219 C 115.390625 180.800781 115.722656 180.867188 116.0625 180.902344 C 116.402344 180.9375 116.738281 180.9375 117.078125 180.90625 C 117.417969 180.875 117.753906 180.808594 118.078125 180.710938 L 154.359375 169.808594 L 155.121094 169.578125 C 155.277344 165.609375 156.308594 161.886719 158.222656 158.40625 C 157.984375 158.296875 157.734375 158.230469 157.476562 158.210938 C 157.160156 158.179688 156.851562 158.210938 156.546875 158.304688 Z M 156.546875 158.304688 " fill-opacity="1" fill-rule="nonzero"/><path fill="#2f2e41" d="M 117.363281 183.367188 C 116.796875 183.363281 116.285156 183.199219 115.828125 182.867188 C 115.371094 182.539062 115.054688 182.105469 114.875 181.570312 L 112.285156 173.75 C 112.175781 173.417969 112.132812 173.082031 112.15625 172.734375 C 112.183594 172.386719 112.273438 172.058594 112.429688 171.75 C 112.585938 171.4375 112.796875 171.167969 113.058594 170.941406 C 113.320312 170.714844 113.617188 170.546875 113.949219 170.4375 L 147.691406 159.257812 C 148.019531 159.148438 148.359375 159.105469 148.707031 159.132812 C 149.050781 159.15625 149.382812 159.246094 149.691406 159.402344 C 150.003906 159.558594 150.269531 159.769531 150.5 160.03125 C 150.726562 160.292969 150.894531 160.589844 151.003906 160.921875 L 153.59375 168.742188 C 153.703125 169.0625 153.746094 169.394531 153.726562 169.730469 C 153.707031 170.070312 153.621094 170.390625 153.476562 170.699219 C 153.328125 171.003906 153.128906 171.273438 152.878906 171.5 C 152.628906 171.730469 152.34375 171.902344 152.027344 172.019531 C 151.996094 172.03125 151.964844 172.042969 151.929688 172.050781 L 118.1875 183.230469 C 117.921875 183.320312 117.644531 183.367188 117.363281 183.367188 Z M 117.363281 183.367188 " fill-opacity="1" fill-rule="nonzero"/><path fill="#3f3d56" d="M 180.554688 144.414062 C 179.714844 144.414062 178.875 144.457031 178.039062 144.535156 C 177.199219 144.617188 176.367188 144.738281 175.542969 144.898438 C 174.714844 145.0625 173.898438 145.261719 173.09375 145.5 C 172.285156 145.742188 171.492188 146.019531 170.714844 146.335938 C 169.933594 146.652344 169.171875 147.003906 168.425781 147.394531 C 167.679688 147.78125 166.953125 148.207031 166.25 148.667969 C 165.546875 149.125 164.863281 149.617188 164.207031 150.144531 C 163.546875 150.667969 162.917969 151.222656 162.3125 151.808594 C 161.710938 152.394531 161.136719 153.007812 160.589844 153.648438 C 160.046875 154.289062 159.53125 154.953125 159.050781 155.644531 C 158.570312 156.335938 158.125 157.046875 157.710938 157.78125 C 157.300781 158.511719 156.921875 159.265625 156.582031 160.035156 C 156.242188 160.804688 155.941406 161.585938 155.675781 162.386719 C 155.410156 163.183594 155.1875 163.992188 155 164.8125 C 154.8125 165.632812 154.667969 166.460938 154.558594 167.296875 C 154.453125 168.128906 154.386719 168.96875 154.359375 169.808594 C 154.351562 170.074219 154.347656 170.34375 154.347656 170.613281 C 154.347656 171.472656 154.390625 172.328125 154.476562 173.179688 C 154.558594 174.035156 154.683594 174.882812 154.851562 175.722656 C 155.019531 176.566406 155.226562 177.398438 155.476562 178.21875 C 155.726562 179.039062 156.015625 179.847656 156.34375 180.636719 C 156.671875 181.429688 157.039062 182.207031 157.441406 182.960938 C 157.847656 183.71875 158.289062 184.453125 158.765625 185.167969 C 159.242188 185.882812 159.753906 186.570312 160.296875 187.234375 C 160.84375 187.894531 161.417969 188.53125 162.023438 189.136719 C 162.632812 189.746094 163.265625 190.320312 163.929688 190.863281 C 164.59375 191.410156 165.28125 191.917969 165.996094 192.394531 C 166.710938 192.871094 167.445312 193.3125 168.203125 193.71875 C 168.957031 194.121094 169.734375 194.488281 170.527344 194.816406 C 171.320312 195.144531 172.125 195.433594 172.949219 195.683594 C 173.769531 195.933594 174.601562 196.140625 175.441406 196.308594 C 176.285156 196.476562 177.132812 196.601562 177.988281 196.683594 C 178.839844 196.769531 179.695312 196.8125 180.554688 196.8125 C 181.414062 196.8125 182.269531 196.769531 183.125 196.683594 C 183.976562 196.601562 184.828125 196.476562 185.667969 196.308594 C 186.511719 196.140625 187.339844 195.933594 188.164062 195.683594 C 188.984375 195.433594 189.792969 195.144531 190.585938 194.816406 C 191.378906 194.488281 192.152344 194.121094 192.910156 193.71875 C 193.667969 193.3125 194.402344 192.871094 195.113281 192.394531 C 195.828125 191.917969 196.515625 191.410156 197.179688 190.863281 C 197.84375 190.320312 198.480469 189.746094 199.085938 189.136719 C 199.695312 188.53125 200.269531 187.894531 200.8125 187.234375 C 201.359375 186.570312 201.867188 185.882812 202.34375 185.167969 C 202.824219 184.453125 203.261719 183.71875 203.667969 182.960938 C 204.074219 182.207031 204.4375 181.429688 204.765625 180.636719 C 205.097656 179.847656 205.382812 179.039062 205.632812 178.21875 C 205.882812 177.398438 206.089844 176.566406 206.257812 175.722656 C 206.425781 174.882812 206.550781 174.035156 206.636719 173.179688 C 206.71875 172.328125 206.761719 171.472656 206.761719 170.613281 C 206.761719 169.753906 206.71875 168.898438 206.636719 168.046875 C 206.550781 167.191406 206.425781 166.34375 206.257812 165.5 C 206.089844 164.660156 205.882812 163.828125 205.632812 163.007812 C 205.382812 162.1875 205.097656 161.378906 204.765625 160.585938 C 204.4375 159.792969 204.074219 159.019531 203.667969 158.261719 C 203.261719 157.507812 202.824219 156.769531 202.34375 156.058594 C 201.867188 155.34375 201.359375 154.65625 200.8125 153.992188 C 200.269531 153.328125 199.695312 152.695312 199.085938 152.089844 C 198.480469 151.480469 197.84375 150.90625 197.179688 150.363281 C 196.515625 149.816406 195.828125 149.304688 195.113281 148.828125 C 194.402344 148.351562 193.667969 147.914062 192.910156 147.507812 C 192.152344 147.105469 191.378906 146.738281 190.585938 146.410156 C 189.792969 146.082031 188.984375 145.792969 188.164062 145.542969 C 187.339844 145.292969 186.511719 145.085938 185.667969 144.917969 C 184.828125 144.75 183.976562 144.625 183.125 144.539062 C 182.269531 144.457031 181.414062 144.414062 180.554688 144.414062 Z M 180.554688 196.0625 C 179.722656 196.0625 178.890625 196.019531 178.0625 195.9375 C 177.230469 195.855469 176.40625 195.734375 175.589844 195.570312 C 174.773438 195.40625 173.964844 195.203125 173.167969 194.960938 C 172.371094 194.71875 171.585938 194.4375 170.816406 194.117188 C 170.046875 193.800781 169.292969 193.441406 168.558594 193.050781 C 167.824219 192.65625 167.109375 192.230469 166.417969 191.765625 C 165.726562 191.300781 165.054688 190.804688 164.414062 190.277344 C 163.769531 189.75 163.152344 189.191406 162.5625 188.601562 C 161.972656 188.011719 161.414062 187.394531 160.882812 186.75 C 160.355469 186.105469 159.859375 185.4375 159.394531 184.746094 C 158.933594 184.054688 158.503906 183.339844 158.113281 182.605469 C 157.71875 181.871094 157.363281 181.117188 157.042969 180.347656 C 156.722656 179.578125 156.441406 178.796875 156.199219 177.996094 C 155.957031 177.199219 155.753906 176.394531 155.589844 175.578125 C 155.429688 174.757812 155.304688 173.9375 155.222656 173.105469 C 155.140625 172.277344 155.097656 171.445312 155.097656 170.613281 C 155.097656 170.265625 155.105469 169.921875 155.121094 169.578125 C 155.152344 168.753906 155.226562 167.933594 155.339844 167.113281 C 155.453125 166.296875 155.609375 165.484375 155.800781 164.679688 C 155.992188 163.878906 156.222656 163.085938 156.496094 162.304688 C 156.765625 161.523438 157.070312 160.757812 157.414062 160.007812 C 157.761719 159.253906 158.140625 158.523438 158.558594 157.808594 C 158.972656 157.09375 159.421875 156.402344 159.90625 155.730469 C 160.390625 155.0625 160.902344 154.417969 161.449219 153.796875 C 161.996094 153.175781 162.570312 152.582031 163.175781 152.019531 C 163.777344 151.457031 164.410156 150.921875 165.066406 150.417969 C 165.71875 149.917969 166.398438 149.445312 167.101562 149.011719 C 167.804688 148.574219 168.523438 148.171875 169.265625 147.804688 C 170.003906 147.4375 170.761719 147.109375 171.535156 146.816406 C 172.308594 146.523438 173.09375 146.269531 173.890625 146.050781 C 174.6875 145.835938 175.496094 145.660156 176.308594 145.519531 C 177.125 145.382812 177.945312 145.285156 178.769531 145.226562 C 179.59375 145.167969 180.417969 145.152344 181.246094 145.175781 C 182.070312 145.195312 182.894531 145.257812 183.714844 145.363281 C 184.535156 145.464844 185.347656 145.605469 186.15625 145.789062 C 186.960938 145.96875 187.757812 146.191406 188.542969 146.449219 C 189.328125 146.707031 190.097656 147.003906 190.851562 147.339844 C 191.609375 147.671875 192.347656 148.042969 193.066406 148.449219 C 193.785156 148.855469 194.484375 149.296875 195.164062 149.769531 C 195.839844 150.246094 196.492188 150.75 197.121094 151.289062 C 197.746094 151.824219 198.347656 152.390625 198.917969 152.988281 C 199.492188 153.585938 200.035156 154.207031 200.546875 154.855469 C 201.058594 155.503906 201.535156 156.175781 201.984375 156.871094 C 202.429688 157.566406 202.839844 158.28125 203.21875 159.019531 C 203.59375 159.753906 203.933594 160.507812 204.238281 161.273438 C 204.539062 162.042969 204.804688 162.824219 205.03125 163.621094 C 205.261719 164.414062 205.449219 165.21875 205.597656 166.03125 C 205.746094 166.84375 205.855469 167.660156 205.925781 168.484375 C 205.992188 169.308594 206.023438 170.132812 206.011719 170.957031 C 206 171.785156 205.949219 172.609375 205.855469 173.429688 C 205.765625 174.25 205.632812 175.066406 205.464844 175.875 C 205.292969 176.683594 205.082031 177.480469 204.835938 178.269531 C 204.585938 179.058594 204.300781 179.832031 203.976562 180.589844 C 203.652344 181.351562 203.292969 182.09375 202.894531 182.820312 C 202.5 183.542969 202.066406 184.25 201.601562 184.929688 C 201.136719 185.613281 200.640625 186.273438 200.109375 186.90625 C 199.582031 187.542969 199.023438 188.148438 198.433594 188.730469 C 197.847656 189.3125 197.230469 189.859375 196.589844 190.382812 C 195.945312 190.902344 195.28125 191.390625 194.589844 191.84375 C 193.902344 192.300781 193.191406 192.722656 192.460938 193.109375 C 191.730469 193.496094 190.984375 193.84375 190.21875 194.160156 C 189.453125 194.472656 188.675781 194.746094 187.882812 194.984375 C 187.09375 195.222656 186.289062 195.421875 185.480469 195.582031 C 184.667969 195.742188 183.851562 195.863281 183.03125 195.941406 C 182.207031 196.023438 181.382812 196.0625 180.554688 196.0625 Z M 180.554688 196.0625 " fill-opacity="1" fill-rule="nonzero"/><path fill="#e6e6e6" d="M 202.644531 170.613281 C 202.644531 171.335938 202.609375 172.058594 202.539062 172.777344 C 202.464844 173.496094 202.359375 174.210938 202.21875 174.921875 C 202.078125 175.628906 201.902344 176.332031 201.691406 177.023438 C 201.484375 177.714844 201.238281 178.394531 200.960938 179.0625 C 200.6875 179.730469 200.375 180.382812 200.035156 181.023438 C 199.695312 181.660156 199.324219 182.28125 198.921875 182.878906 C 198.519531 183.480469 198.089844 184.0625 197.628906 184.621094 C 197.171875 185.179688 196.6875 185.714844 196.175781 186.226562 C 195.664062 186.738281 195.128906 187.222656 194.566406 187.683594 C 194.007812 188.140625 193.429688 188.570312 192.828125 188.972656 C 192.226562 189.375 191.605469 189.746094 190.96875 190.085938 C 190.328125 190.429688 189.675781 190.738281 189.007812 191.011719 C 188.339844 191.289062 187.660156 191.535156 186.96875 191.742188 C 186.273438 191.953125 185.574219 192.128906 184.863281 192.269531 C 184.15625 192.410156 183.441406 192.515625 182.71875 192.589844 C 182 192.660156 181.277344 192.695312 180.554688 192.695312 C 179.832031 192.695312 179.109375 192.660156 178.390625 192.589844 C 177.671875 192.515625 176.957031 192.410156 176.246094 192.269531 C 175.535156 192.128906 174.835938 191.953125 174.144531 191.742188 C 173.453125 191.535156 172.769531 191.289062 172.101562 191.011719 C 171.433594 190.738281 170.78125 190.429688 170.144531 190.085938 C 169.503906 189.746094 168.886719 189.375 168.285156 188.972656 C 167.683594 188.570312 167.101562 188.140625 166.542969 187.683594 C 165.984375 187.222656 165.449219 186.738281 164.9375 186.226562 C 164.425781 185.714844 163.941406 185.179688 163.480469 184.621094 C 163.023438 184.0625 162.589844 183.480469 162.191406 182.878906 C 161.789062 182.28125 161.417969 181.660156 161.074219 181.023438 C 160.734375 180.382812 160.425781 179.730469 160.148438 179.0625 C 159.871094 178.394531 159.628906 177.714844 159.417969 177.023438 C 159.207031 176.332031 159.03125 175.628906 158.890625 174.921875 C 158.75 174.210938 158.644531 173.496094 158.574219 172.777344 C 158.503906 172.058594 158.46875 171.335938 158.46875 170.613281 C 158.46875 169.914062 158.5 169.222656 158.5625 168.542969 C 158.628906 167.84375 158.730469 167.152344 158.859375 166.460938 C 158.992188 165.773438 159.15625 165.09375 159.355469 164.417969 C 159.550781 163.746094 159.78125 163.082031 160.039062 162.429688 C 160.300781 161.78125 160.589844 161.140625 160.910156 160.519531 C 161.230469 159.894531 161.582031 159.285156 161.960938 158.695312 C 162.339844 158.105469 162.746094 157.535156 163.179688 156.980469 C 163.609375 156.429688 164.070312 155.898438 164.554688 155.390625 C 165.039062 154.882812 165.542969 154.398438 166.074219 153.9375 C 166.605469 153.480469 167.15625 153.046875 167.726562 152.636719 C 168.296875 152.230469 168.886719 151.851562 169.492188 151.5 C 170.101562 151.148438 170.722656 150.828125 171.363281 150.535156 C 172 150.242188 172.652344 149.980469 173.3125 149.753906 C 173.976562 149.523438 174.648438 149.324219 175.332031 149.15625 C 176.011719 148.992188 176.699219 148.859375 177.394531 148.757812 C 178.089844 148.660156 178.789062 148.589844 179.488281 148.558594 C 180.191406 148.523438 180.890625 148.523438 181.59375 148.554688 C 182.292969 148.589844 182.992188 148.65625 183.683594 148.753906 C 184.378906 148.855469 185.070312 148.984375 185.75 149.152344 C 186.433594 149.316406 187.105469 149.511719 187.769531 149.742188 C 188.433594 149.972656 189.082031 150.230469 189.722656 150.523438 C 190.359375 150.8125 190.984375 151.132812 191.589844 151.484375 C 192.199219 151.835938 192.789062 152.214844 193.359375 152.621094 C 193.933594 153.027344 194.484375 153.460938 195.015625 153.917969 C 195.542969 154.378906 196.050781 154.863281 196.535156 155.371094 C 197.019531 155.878906 197.480469 156.40625 197.914062 156.957031 C 198.347656 157.507812 198.753906 158.082031 199.132812 158.671875 C 199.515625 159.261719 199.863281 159.867188 200.1875 160.492188 C 200.507812 161.113281 200.800781 161.75 201.058594 162.402344 C 201.320312 163.054688 201.550781 163.714844 201.75 164.390625 C 201.945312 165.0625 202.113281 165.742188 202.246094 166.433594 C 202.378906 167.121094 202.476562 167.816406 202.542969 168.511719 C 202.609375 169.210938 202.644531 169.910156 202.644531 170.613281 Z M 202.644531 170.613281 " fill-opacity="1" fill-rule="nonzero"/><path fill="#ffbb33" d="M 187.132812 172.082031 C 186.589844 171.363281 185.90625 170.824219 185.085938 170.460938 C 184.085938 170.039062 183.0625 169.703125 182.007812 169.449219 L 182.007812 163.4375 C 183.65625 163.6875 185.117188 164.351562 186.382812 165.433594 L 187.605469 162.832031 C 186.898438 162.203125 186.105469 161.710938 185.222656 161.359375 C 184.25 160.96875 183.246094 160.710938 182.203125 160.585938 L 182.203125 157.539062 L 179.375 157.539062 L 179.375 160.617188 C 178.273438 160.742188 177.242188 161.085938 176.289062 161.652344 C 175.421875 162.164062 174.722656 162.847656 174.195312 163.703125 C 173.6875 164.542969 173.4375 165.453125 173.449219 166.433594 C 173.398438 167.503906 173.683594 168.476562 174.308594 169.351562 C 174.871094 170.101562 175.582031 170.664062 176.441406 171.042969 C 177.457031 171.476562 178.5 171.820312 179.570312 172.082031 L 179.570312 177.839844 C 177.617188 177.691406 175.882812 177 174.363281 175.761719 L 173.144531 178.367188 C 173.976562 179.058594 174.90625 179.585938 175.929688 179.945312 C 177.042969 180.347656 178.195312 180.585938 179.375 180.664062 L 179.375 183.6875 L 182.203125 183.6875 L 182.203125 180.609375 C 183.816406 180.433594 185.214844 179.792969 186.398438 178.6875 C 186.914062 178.191406 187.308594 177.617188 187.578125 176.960938 C 187.851562 176.300781 187.980469 175.617188 187.964844 174.90625 C 188.011719 173.867188 187.734375 172.925781 187.132812 172.082031 Z M 179.570312 168.8125 C 178.875 168.601562 178.246094 168.265625 177.6875 167.800781 C 177.21875 167.386719 176.996094 166.863281 177.019531 166.238281 C 177 165.542969 177.226562 164.945312 177.703125 164.4375 C 178.222656 163.914062 178.84375 163.589844 179.570312 163.46875 Z M 183.78125 176.777344 C 183.292969 177.28125 182.699219 177.585938 182.007812 177.703125 L 182.007812 172.746094 C 182.660156 172.921875 183.25 173.21875 183.78125 173.632812 C 184.207031 173.996094 184.410156 174.457031 184.394531 175.019531 C 184.417969 175.683594 184.214844 176.269531 183.78125 176.777344 Z M 183.78125 176.777344 " fill-opacity="1" fill-rule="nonzero"/><path fill="#2f2e41" d="M 118.566406 215.0625 C 118.277344 215.0625 117.992188 215.015625 117.71875 214.921875 C 117.445312 214.828125 117.195312 214.691406 116.964844 214.515625 C 116.734375 214.339844 116.542969 214.132812 116.382812 213.890625 C 116.21875 213.648438 116.101562 213.390625 116.027344 213.109375 L 114.617188 207.769531 C 114.527344 207.433594 114.507812 207.09375 114.554688 206.75 C 114.601562 206.40625 114.710938 206.082031 114.886719 205.785156 C 115.0625 205.484375 115.285156 205.230469 115.5625 205.019531 C 115.839844 204.808594 116.144531 204.65625 116.480469 204.570312 L 161.007812 192.804688 C 161.34375 192.71875 161.683594 192.699219 162.027344 192.746094 C 162.371094 192.792969 162.695312 192.902344 162.996094 193.078125 C 163.292969 193.253906 163.550781 193.476562 163.761719 193.753906 C 163.972656 194.03125 164.121094 194.335938 164.210938 194.671875 L 165.40625 199.195312 L 165.183594 199.214844 C 159.472656 199.65625 153.9375 200.894531 148.582031 202.921875 C 143.226562 204.953125 138.265625 207.691406 133.695312 211.140625 L 133.628906 211.171875 L 119.230469 214.976562 C 119.011719 215.035156 118.789062 215.0625 118.566406 215.0625 Z M 118.566406 215.0625 " fill-opacity="1" fill-rule="nonzero"/><path fill="#3f3d56" d="M 111.191406 241.441406 C 105.90625 240.660156 101.023438 238.816406 96.542969 235.90625 C 94.34375 234.476562 92.324219 232.828125 90.488281 230.957031 C 88.679688 229.113281 86.953125 227.019531 86.054688 224.5625 C 85.625 223.429688 85.421875 222.253906 85.441406 221.039062 C 85.464844 219.824219 85.710938 218.65625 86.179688 217.539062 C 86.644531 216.425781 87.304688 215.445312 88.15625 214.59375 C 89.011719 213.742188 89.996094 213.085938 91.109375 212.625 C 93.351562 211.730469 96.0625 211.636719 98.246094 212.617188 C 99.304688 213.078125 100.171875 213.777344 100.851562 214.714844 C 101.164062 215.140625 101.390625 215.609375 101.53125 216.121094 C 101.660156 216.585938 101.671875 217.054688 101.5625 217.527344 C 101.292969 218.511719 100.695312 219.226562 99.777344 219.667969 C 98.816406 220.164062 97.796875 220.472656 96.722656 220.597656 C 95.652344 220.746094 94.117188 220.878906 93.253906 220.019531 C 93.074219 219.847656 92.9375 219.644531 92.84375 219.417969 C 92.78125 219.238281 92.757812 219.058594 92.78125 218.871094 C 92.769531 218.953125 92.832031 218.695312 92.828125 218.703125 C 92.816406 218.742188 92.757812 218.835938 92.839844 218.691406 C 92.867188 218.644531 92.894531 218.601562 92.925781 218.554688 C 92.898438 218.59375 92.835938 218.65625 92.949219 218.550781 C 93.042969 218.445312 93.15625 218.375 93.289062 218.339844 C 93.34375 218.324219 93.394531 218.3125 93.445312 218.296875 C 93.578125 218.261719 93.316406 218.296875 93.449219 218.292969 C 93.503906 218.292969 93.554688 218.292969 93.605469 218.292969 C 93.738281 218.285156 93.476562 218.253906 93.605469 218.289062 C 93.652344 218.300781 93.703125 218.3125 93.75 218.328125 C 93.855469 218.359375 93.675781 218.25 93.746094 218.332031 C 93.832031 218.429688 93.660156 218.238281 93.753906 218.332031 C 93.800781 218.378906 93.847656 218.429688 93.886719 218.480469 C 94.058594 218.648438 94.265625 218.734375 94.507812 218.734375 C 94.75 218.734375 94.957031 218.648438 95.128906 218.480469 C 95.296875 218.304688 95.378906 218.097656 95.378906 217.859375 C 95.378906 217.621094 95.296875 217.414062 95.128906 217.238281 C 94.265625 216.167969 92.554688 216.433594 91.679688 217.339844 C 90.5625 218.492188 91.003906 220.324219 92.089844 221.335938 C 93.320312 222.476562 95.0625 222.554688 96.644531 222.363281 C 97.988281 222.234375 99.273438 221.871094 100.488281 221.277344 C 101.726562 220.667969 102.605469 219.722656 103.117188 218.4375 C 103.34375 217.769531 103.421875 217.082031 103.351562 216.378906 C 103.285156 215.675781 103.074219 215.019531 102.722656 214.40625 C 101.324219 211.785156 98.433594 210.4375 95.578125 210.207031 C 94.089844 210.089844 92.640625 210.261719 91.222656 210.726562 C 89.808594 211.191406 88.535156 211.910156 87.40625 212.886719 C 86.332031 213.855469 85.472656 214.988281 84.835938 216.285156 C 84.195312 217.585938 83.816406 218.957031 83.707031 220.398438 C 83.457031 223.390625 84.617188 226.296875 86.3125 228.714844 C 88.09375 231.179688 90.1875 233.34375 92.59375 235.207031 C 97.339844 238.996094 102.679688 241.511719 108.621094 242.765625 C 109.320312 242.910156 110.019531 243.03125 110.722656 243.132812 C 110.957031 243.191406 111.175781 243.160156 111.382812 243.042969 C 111.59375 242.921875 111.730469 242.75 111.804688 242.523438 C 111.867188 242.289062 111.835938 242.066406 111.71875 241.855469 C 111.597656 241.644531 111.421875 241.507812 111.191406 241.441406 Z M 111.191406 241.441406 " fill-opacity="1" fill-rule="nonzero"/><path fill="#cccccc" d="M 194.820312 203.3125 C 187.167969 203.207031 179.539062 203.398438 171.933594 203.894531 C 169.335938 204.066406 167.085938 204.984375 167.085938 206.527344 C 167.085938 207.820312 169.316406 209.332031 171.933594 209.160156 C 179.535156 208.664062 187.164062 208.46875 194.820312 208.578125 C 201.0625 208.664062 201.058594 203.402344 194.820312 203.3125 Z M 194.820312 203.3125 " fill-opacity="1" fill-rule="nonzero"/><path fill="#3f3d56" d="M 183.511719 208.316406 C 182.683594 208.316406 163.253906 208.285156 163.253906 205.601562 C 163.253906 202.921875 182.683594 202.890625 183.511719 202.890625 C 184.335938 202.890625 203.765625 202.921875 203.765625 205.601562 C 203.765625 208.285156 184.335938 208.316406 183.511719 208.316406 Z M 164.011719 205.601562 C 164.546875 206.417969 171.6875 207.566406 183.511719 207.566406 C 195.332031 207.566406 202.476562 206.417969 203.007812 205.601562 C 202.476562 204.789062 195.332031 203.636719 183.511719 203.636719 C 171.6875 203.636719 164.546875 204.789062 164.011719 205.601562 Z M 164.011719 205.601562 " fill-opacity="1" fill-rule="nonzero"/><path fill="#3f3d56" d="M 245.152344 278.847656 C 249.453125 278.726562 254.808594 278.578125 258.929688 275.566406 C 260.171875 274.621094 261.160156 273.457031 261.886719 272.078125 C 262.613281 270.695312 263.015625 269.226562 263.09375 267.667969 C 263.179688 265.289062 262.320312 263.214844 260.675781 261.824219 C 258.519531 260.003906 255.375 259.578125 251.984375 260.574219 L 255.496094 234.917969 L 252.917969 234.566406 L 248.792969 264.726562 L 250.945312 263.738281 C 253.441406 262.59375 256.867188 262.011719 258.996094 263.8125 C 259.523438 264.289062 259.921875 264.855469 260.183594 265.519531 C 260.449219 266.179688 260.550781 266.867188 260.492188 267.578125 C 260.429688 268.738281 260.128906 269.832031 259.585938 270.859375 C 259.046875 271.886719 258.316406 272.757812 257.394531 273.464844 C 254.1875 275.808594 249.921875 276.113281 245.082031 276.246094 Z M 245.152344 278.847656 " fill-opacity="1" fill-rule="nonzero"/><path fill="#3f3d56" d="M 224.011719 237.132812 L 238.027344 237.132812 L 238.027344 239.734375 L 224.011719 239.734375 Z M 224.011719 237.132812 " fill-opacity="1" fill-rule="nonzero"/><path fill="#2f2e41" d="M 124.90625 227.027344 C 124.59375 227.023438 124.292969 226.96875 124 226.859375 C 123.707031 226.753906 123.441406 226.597656 123.207031 226.394531 C 122.96875 226.191406 122.773438 225.953125 122.621094 225.679688 C 122.472656 225.410156 122.371094 225.117188 122.320312 224.8125 L 121.464844 219.355469 C 121.414062 219.011719 121.425781 218.671875 121.507812 218.332031 C 121.589844 217.996094 121.734375 217.6875 121.9375 217.40625 C 122.144531 217.125 122.394531 216.894531 122.691406 216.710938 C 122.988281 216.53125 123.308594 216.414062 123.648438 216.359375 L 169.148438 209.234375 C 169.492188 209.179688 169.832031 209.195312 170.171875 209.277344 C 170.507812 209.355469 170.816406 209.5 171.097656 209.703125 C 171.378906 209.910156 171.609375 210.160156 171.789062 210.457031 C 171.972656 210.753906 172.089844 211.074219 172.144531 211.414062 L 173 216.871094 C 173.050781 217.214844 173.039062 217.554688 172.957031 217.894531 C 172.875 218.230469 172.730469 218.539062 172.527344 218.820312 C 172.320312 219.101562 172.070312 219.332031 171.773438 219.515625 C 171.480469 219.695312 171.160156 219.8125 170.816406 219.867188 L 125.316406 226.992188 C 125.179688 227.015625 125.042969 227.027344 124.90625 227.027344 Z M 124.90625 227.027344 " fill-opacity="1" fill-rule="nonzero"/><path fill="#ffbb33" d="M 125.167969 143.984375 C 125.167969 144.609375 125.140625 145.230469 125.078125 145.855469 C 125.015625 146.476562 124.925781 147.09375 124.804688 147.707031 C 124.679688 148.320312 124.527344 148.925781 124.347656 149.523438 C 124.167969 150.121094 123.957031 150.710938 123.714844 151.289062 C 123.476562 151.863281 123.210938 152.429688 122.914062 152.980469 C 122.621094 153.53125 122.300781 154.066406 121.953125 154.585938 C 121.605469 155.105469 121.234375 155.609375 120.835938 156.09375 C 120.4375 156.574219 120.019531 157.039062 119.578125 157.480469 C 119.136719 157.921875 118.671875 158.339844 118.1875 158.738281 C 117.707031 159.132812 117.203125 159.507812 116.683594 159.855469 C 116.164062 160.199219 115.628906 160.523438 115.078125 160.816406 C 114.527344 161.113281 113.960938 161.378906 113.382812 161.617188 C 112.804688 161.855469 112.21875 162.066406 111.617188 162.25 C 111.019531 162.429688 110.414062 162.582031 109.800781 162.703125 C 109.1875 162.824219 108.570312 162.917969 107.949219 162.980469 C 107.324219 163.039062 106.703125 163.070312 106.078125 163.070312 C 105.449219 163.070312 104.828125 163.039062 104.203125 162.980469 C 103.582031 162.917969 102.964844 162.824219 102.351562 162.703125 C 101.738281 162.582031 101.132812 162.429688 100.535156 162.25 C 99.933594 162.066406 99.347656 161.855469 98.769531 161.617188 C 98.191406 161.378906 97.628906 161.113281 97.074219 160.816406 C 96.523438 160.523438 95.988281 160.199219 95.46875 159.855469 C 94.949219 159.507812 94.445312 159.132812 93.964844 158.738281 C 93.480469 158.339844 93.015625 157.921875 92.574219 157.480469 C 92.132812 157.039062 91.714844 156.574219 91.316406 156.09375 C 90.921875 155.609375 90.546875 155.105469 90.199219 154.585938 C 89.851562 154.066406 89.53125 153.53125 89.238281 152.980469 C 88.941406 152.429688 88.675781 151.863281 88.4375 151.289062 C 88.195312 150.710938 87.988281 150.121094 87.804688 149.523438 C 87.625 148.925781 87.472656 148.320312 87.351562 147.707031 C 87.226562 147.09375 87.136719 146.476562 87.074219 145.855469 C 87.011719 145.230469 86.984375 144.609375 86.984375 143.984375 C 86.984375 143.359375 87.011719 142.734375 87.074219 142.113281 C 87.136719 141.488281 87.226562 140.871094 87.351562 140.257812 C 87.472656 139.644531 87.625 139.039062 87.804688 138.441406 C 87.988281 137.84375 88.195312 137.257812 88.4375 136.679688 C 88.675781 136.101562 88.941406 135.535156 89.238281 134.984375 C 89.53125 134.433594 89.851562 133.898438 90.199219 133.378906 C 90.546875 132.859375 90.921875 132.359375 91.316406 131.875 C 91.714844 131.390625 92.132812 130.929688 92.574219 130.488281 C 93.015625 130.042969 93.480469 129.625 93.964844 129.226562 C 94.445312 128.832031 94.949219 128.460938 95.46875 128.113281 C 95.988281 127.765625 96.523438 127.445312 97.074219 127.148438 C 97.628906 126.855469 98.191406 126.589844 98.769531 126.347656 C 99.347656 126.109375 99.933594 125.898438 100.535156 125.71875 C 101.132812 125.535156 101.738281 125.382812 102.351562 125.261719 C 102.964844 125.140625 103.582031 125.050781 104.203125 124.988281 C 104.828125 124.925781 105.449219 124.894531 106.078125 124.894531 C 106.703125 124.894531 107.324219 124.925781 107.949219 124.988281 C 108.570312 125.050781 109.1875 125.140625 109.800781 125.261719 C 110.414062 125.382812 111.019531 125.535156 111.617188 125.71875 C 112.21875 125.898438 112.804688 126.109375 113.382812 126.347656 C 113.960938 126.589844 114.527344 126.855469 115.078125 127.148438 C 115.628906 127.445312 116.164062 127.765625 116.683594 128.113281 C 117.203125 128.460938 117.707031 128.832031 118.1875 129.226562 C 118.671875 129.625 119.136719 130.042969 119.578125 130.488281 C 120.019531 130.929688 120.4375 131.390625 120.835938 131.875 C 121.234375 132.359375 121.605469 132.859375 121.953125 133.378906 C 122.300781 133.898438 122.621094 134.433594 122.914062 134.984375 C 123.210938 135.535156 123.476562 136.101562 123.714844 136.679688 C 123.957031 137.257812 124.167969 137.84375 124.347656 138.441406 C 124.527344 139.039062 124.679688 139.644531 124.804688 140.257812 C 124.925781 140.871094 125.015625 141.488281 125.078125 142.113281 C 125.140625 142.734375 125.167969 143.359375 125.167969 143.984375 Z M 125.167969 143.984375 " fill-opacity="1" fill-rule="nonzero"/><path fill="#2f2e41" d="M 116.886719 148.921875 C 117.503906 148.707031 118.050781 148.371094 118.523438 147.921875 C 119.179688 147.242188 119.460938 146.433594 119.367188 145.492188 C 119.308594 144.820312 118.996094 144.300781 118.425781 143.933594 C 117.734375 143.511719 116.820312 143.527344 115.898438 143.953125 L 115.792969 136.503906 L 115.042969 136.515625 L 115.167969 145.273438 L 115.738281 144.898438 C 116.402344 144.464844 117.351562 144.152344 118.035156 144.574219 C 118.394531 144.8125 118.59375 145.148438 118.621094 145.578125 C 118.6875 146.277344 118.480469 146.882812 117.996094 147.390625 C 117.183594 148.195312 115.980469 148.464844 114.609375 148.710938 L 114.742188 149.445312 C 115.472656 149.335938 116.1875 149.160156 116.886719 148.921875 Z M 116.886719 148.921875 " fill-opacity="1" fill-rule="nonzero"/><path fill="#2f2e41" d="M 119.511719 136.582031 L 123.5 135.976562 L 123.613281 136.71875 L 119.625 137.320312 Z M 119.511719 136.582031 " fill-opacity="1" fill-rule="nonzero"/><path fill="#2f2e41" d="M 106.925781 138.488281 L 110.914062 137.882812 L 111.027344 138.621094 L 107.039062 139.226562 Z M 106.925781 138.488281 " fill-opacity="1" fill-rule="nonzero"/><path fill="#2f2e41" d="M 118.695312 226.691406 C 118.351562 226.691406 118.015625 226.640625 117.6875 226.535156 C 117.359375 226.433594 117.054688 226.285156 116.773438 226.089844 C 116.492188 225.894531 116.246094 225.660156 116.035156 225.390625 C 115.824219 225.117188 115.65625 224.820312 115.535156 224.5 L 102.371094 189.257812 C 102.171875 188.722656 102 188.179688 101.855469 187.628906 C 101.710938 187.078125 101.59375 186.523438 101.5 185.960938 C 101.410156 185.398438 101.347656 184.832031 101.3125 184.265625 C 101.277344 183.695312 101.269531 183.128906 101.289062 182.558594 C 101.308594 181.988281 101.359375 181.421875 101.433594 180.859375 C 101.511719 180.292969 101.613281 179.734375 101.746094 179.179688 C 101.875 178.625 102.035156 178.078125 102.21875 177.539062 C 102.402344 177 102.613281 176.472656 102.851562 175.953125 C 103.085938 175.4375 103.347656 174.929688 103.632812 174.4375 C 103.921875 173.945312 104.230469 173.46875 104.5625 173.007812 C 104.894531 172.542969 105.25 172.097656 105.625 171.671875 C 106.003906 171.246094 106.398438 170.835938 106.816406 170.449219 C 107.234375 170.058594 107.667969 169.691406 108.121094 169.347656 C 108.574219 169 109.042969 168.675781 109.527344 168.378906 C 110.011719 168.078125 110.507812 167.800781 111.019531 167.550781 C 111.53125 167.300781 112.054688 167.074219 112.585938 166.875 L 123.292969 162.878906 C 124.160156 162.550781 125.019531 162.582031 125.867188 162.96875 C 126.710938 163.347656 127.292969 163.96875 127.617188 164.835938 L 152.003906 210.863281 C 152.164062 211.28125 152.234375 211.714844 152.222656 212.164062 C 152.207031 212.613281 152.109375 213.042969 151.925781 213.449219 C 151.742188 213.859375 151.484375 214.214844 151.15625 214.523438 C 150.828125 214.828125 150.453125 215.0625 150.035156 215.21875 L 119.871094 226.476562 C 119.492188 226.621094 119.101562 226.691406 118.695312 226.691406 Z M 118.695312 226.691406 " fill-opacity="1" fill-rule="nonzero"/><path fill="#e6e6e6" d="M 120.042969 164.089844 L 144.238281 196.4375 L 127.867188 164.429688 C 127.730469 164.054688 127.527344 163.71875 127.257812 163.421875 C 126.984375 163.125 126.667969 162.890625 126.304688 162.722656 C 125.941406 162.550781 125.558594 162.457031 125.160156 162.441406 C 124.757812 162.421875 124.371094 162.480469 123.992188 162.617188 Z M 120.042969 164.089844 " fill-opacity="1" fill-rule="nonzero"/><path fill="#ffbb33" d="M 158.355469 188.65625 L 115.152344 185.875 C 114.8125 185.851562 114.476562 185.796875 114.148438 185.710938 C 113.816406 185.621094 113.5 185.503906 113.195312 185.351562 C 112.886719 185.203125 112.597656 185.023438 112.328125 184.816406 C 112.058594 184.609375 111.808594 184.375 111.585938 184.121094 C 111.359375 183.863281 111.160156 183.589844 110.988281 183.292969 C 110.820312 182.996094 110.679688 182.6875 110.570312 182.367188 C 110.457031 182.042969 110.382812 181.710938 110.335938 181.375 C 110.292969 181.035156 110.28125 180.695312 110.300781 180.355469 C 110.324219 180.015625 110.378906 179.679688 110.464844 179.351562 C 110.554688 179.023438 110.671875 178.703125 110.824219 178.398438 C 110.972656 178.09375 111.152344 177.804688 111.359375 177.53125 C 111.570312 177.261719 111.800781 177.015625 112.054688 176.789062 C 112.3125 176.5625 112.589844 176.367188 112.882812 176.195312 C 113.179688 176.023438 113.488281 175.882812 113.8125 175.773438 C 114.132812 175.664062 114.464844 175.585938 114.804688 175.542969 C 115.140625 175.496094 115.480469 175.484375 115.820312 175.507812 L 159.023438 178.289062 C 159.34375 178.308594 159.652344 178.390625 159.941406 178.53125 C 160.230469 178.675781 160.480469 178.867188 160.695312 179.109375 C 160.90625 179.351562 161.066406 179.625 161.167969 179.929688 C 161.273438 180.238281 161.316406 180.550781 161.292969 180.871094 L 160.941406 186.386719 C 160.917969 186.707031 160.835938 187.011719 160.695312 187.300781 C 160.550781 187.589844 160.359375 187.84375 160.117188 188.054688 C 159.875 188.269531 159.601562 188.425781 159.296875 188.53125 C 158.992188 188.636719 158.675781 188.675781 158.355469 188.65625 Z M 158.355469 188.65625 " fill-opacity="1" fill-rule="nonzero"/><path fill="#2f2e41" d="M 146.8125 190.441406 C 146.753906 190.441406 146.695312 190.4375 146.640625 190.433594 L 111.164062 188.148438 C 110.816406 188.128906 110.488281 188.039062 110.175781 187.886719 C 109.863281 187.734375 109.59375 187.527344 109.363281 187.265625 C 109.132812 187.003906 108.964844 186.710938 108.851562 186.378906 C 108.738281 186.050781 108.695312 185.714844 108.71875 185.367188 L 109.324219 175.953125 C 109.347656 175.605469 109.433594 175.277344 109.585938 174.964844 C 109.742188 174.652344 109.949219 174.382812 110.210938 174.152344 C 110.46875 173.921875 110.765625 173.753906 111.09375 173.640625 C 111.421875 173.527344 111.761719 173.484375 112.109375 173.503906 L 147.582031 175.789062 C 147.929688 175.8125 148.257812 175.902344 148.570312 176.054688 C 148.882812 176.207031 149.152344 176.414062 149.382812 176.675781 C 149.609375 176.9375 149.78125 177.230469 149.894531 177.558594 C 150.007812 177.886719 150.050781 178.226562 150.03125 178.574219 L 149.421875 187.988281 C 149.390625 188.503906 149.21875 188.96875 148.910156 189.382812 C 148.601562 189.796875 148.203125 190.09375 147.722656 190.273438 C 147.425781 190.386719 147.125 190.441406 146.8125 190.441406 Z M 146.8125 190.441406 " fill-opacity="1" fill-rule="nonzero"/><g clip-path="url(#39321444c3)"><path fill="#2f2e41" d="M 105.859375 131.289062 C 108.371094 129.128906 111.820312 131.0625 114.699219 130.722656 C 117.457031 130.402344 119.632812 127.929688 120.1875 125.304688 C 120.835938 122.242188 119.246094 119.171875 116.902344 117.261719 C 114.335938 115.171875 110.929688 114.570312 107.703125 114.957031 C 104.003906 115.402344 100.621094 117.125 97.589844 119.210938 C 94.648438 121.164062 91.972656 123.433594 89.5625 126.007812 C 87.40625 128.386719 85.582031 131.21875 85 134.417969 C 84.472656 137.324219 84.875 140.546875 86.59375 143.011719 C 87.523438 144.292969 88.703125 145.265625 90.140625 145.929688 C 91.617188 146.65625 93.1875 147.171875 94.617188 147.988281 C 96.777344 149.226562 98.875 151.792969 98.199219 154.460938 C 98.050781 155.054688 97.773438 155.578125 97.363281 156.03125 C 96.882812 156.566406 96.011719 155.855469 96.496094 155.320312 C 97.34375 154.375 97.3125 153.117188 96.859375 151.988281 C 96.304688 150.679688 95.402344 149.6875 94.148438 149.011719 C 92.65625 148.15625 91.003906 147.628906 89.472656 146.851562 C 87.984375 146.128906 86.746094 145.105469 85.761719 143.777344 C 83.929688 141.230469 83.378906 137.914062 83.796875 134.847656 C 84.246094 131.527344 85.953125 128.511719 88.089844 125.984375 C 90.417969 123.234375 93.277344 120.90625 96.195312 118.8125 C 99.328125 116.570312 102.792969 114.671875 106.621094 113.984375 C 109.945312 113.390625 113.542969 113.757812 116.445312 115.566406 C 119.15625 117.253906 121.238281 120.160156 121.441406 123.40625 C 121.480469 124.144531 121.421875 124.875 121.261719 125.597656 C 121.105469 126.320312 120.855469 127.007812 120.515625 127.664062 C 120.171875 128.320312 119.75 128.921875 119.25 129.464844 C 118.75 130.007812 118.183594 130.476562 117.558594 130.871094 C 116.242188 131.65625 114.816406 131.988281 113.285156 131.859375 C 111.691406 131.757812 110.09375 131.269531 108.488281 131.402344 C 107.742188 131.449219 107.085938 131.714844 106.515625 132.199219 C 105.96875 132.671875 105.3125 131.757812 105.859375 131.289062 Z M 105.859375 131.289062 " fill-opacity="1" fill-rule="nonzero"/></g><g clip-path="url(#5e0f8b9ddc)"><path fill="#3f3d56" d="M 325.574219 337.222656 L 49.171875 337.222656 C 49.046875 337.222656 48.941406 337.179688 48.855469 337.09375 C 48.769531 337.003906 48.726562 336.898438 48.726562 336.777344 C 48.726562 336.652344 48.769531 336.546875 48.855469 336.460938 C 48.941406 336.375 49.046875 336.332031 49.171875 336.332031 L 325.574219 336.332031 C 325.699219 336.332031 325.804688 336.375 325.890625 336.460938 C 325.976562 336.546875 326.019531 336.652344 326.019531 336.777344 C 326.019531 336.898438 325.976562 337.003906 325.890625 337.09375 C 325.804688 337.179688 325.699219 337.222656 325.574219 337.222656 Z M 325.574219 337.222656 " fill-opacity="1" fill-rule="nonzero"/></g><g clip-path="url(#841c055488)"><path fill="#1c1c1d" d="M 238.371094 20.742188 L 345.609375 20.742188 L 345.609375 77.742188 L 238.371094 77.742188 L 238.371094 20.742188 " fill-opacity="1" fill-rule="nonzero"/></g><g fill="#ffbb33" fill-opacity="1"><g transform="translate(247.564689, 61.992453)"><g><path d="M 12.96875 -19.734375 C 11.09375 -19.734375 9.640625 -19.023438 8.609375 -17.609375 C 7.578125 -16.203125 7.0625 -14.238281 7.0625 -11.71875 C 7.0625 -6.457031 9.03125 -3.828125 12.96875 -3.828125 C 14.625 -3.828125 16.628906 -4.242188 18.984375 -5.078125 L 18.984375 -0.890625 C 17.046875 -0.078125 14.882812 0.328125 12.5 0.328125 C 9.070312 0.328125 6.453125 -0.707031 4.640625 -2.78125 C 2.828125 -4.863281 1.921875 -7.851562 1.921875 -11.75 C 1.921875 -14.195312 2.363281 -16.34375 3.25 -18.1875 C 4.144531 -20.03125 5.425781 -21.441406 7.09375 -22.421875 C 8.769531 -23.398438 10.726562 -23.890625 12.96875 -23.890625 C 15.257812 -23.890625 17.5625 -23.335938 19.875 -22.234375 L 18.25 -18.171875 C 17.375 -18.585938 16.488281 -18.953125 15.59375 -19.265625 C 14.707031 -19.578125 13.832031 -19.734375 12.96875 -19.734375 Z M 12.96875 -19.734375 "/></g></g></g><g fill="#ffbb33" fill-opacity="1"><g transform="translate(268.585059, 61.992453)"><g><path d="M 6.5 -9.046875 C 6.5 -7.253906 6.789062 -5.898438 7.375 -4.984375 C 7.957031 -4.078125 8.910156 -3.625 10.234375 -3.625 C 11.546875 -3.625 12.488281 -4.078125 13.0625 -4.984375 C 13.632812 -5.890625 13.921875 -7.242188 13.921875 -9.046875 C 13.921875 -10.828125 13.628906 -12.160156 13.046875 -13.046875 C 12.472656 -13.941406 11.523438 -14.390625 10.203125 -14.390625 C 8.890625 -14.390625 7.941406 -13.945312 7.359375 -13.0625 C 6.785156 -12.175781 6.5 -10.835938 6.5 -9.046875 Z M 18.953125 -9.046875 C 18.953125 -6.109375 18.175781 -3.8125 16.625 -2.15625 C 15.082031 -0.5 12.929688 0.328125 10.171875 0.328125 C 8.441406 0.328125 6.914062 -0.0507812 5.59375 -0.8125 C 4.269531 -1.570312 3.253906 -2.660156 2.546875 -4.078125 C 1.835938 -5.492188 1.484375 -7.148438 1.484375 -9.046875 C 1.484375 -11.984375 2.25 -14.269531 3.78125 -15.90625 C 5.320312 -17.539062 7.484375 -18.359375 10.265625 -18.359375 C 11.992188 -18.359375 13.519531 -17.976562 14.84375 -17.21875 C 16.164062 -16.46875 17.179688 -15.390625 17.890625 -13.984375 C 18.597656 -12.578125 18.953125 -10.929688 18.953125 -9.046875 Z M 18.953125 -9.046875 "/></g></g></g><g fill="#ffbb33" fill-opacity="1"><g transform="translate(289.009442, 61.992453)"><g><path d="M 15.140625 -5.34375 C 15.140625 -3.5 14.5 -2.09375 13.21875 -1.125 C 11.9375 -0.15625 10.015625 0.328125 7.453125 0.328125 C 6.148438 0.328125 5.035156 0.238281 4.109375 0.0625 C 3.179688 -0.113281 2.316406 -0.375 1.515625 -0.71875 L 1.515625 -4.78125 C 2.429688 -4.351562 3.457031 -3.992188 4.59375 -3.703125 C 5.738281 -3.410156 6.75 -3.265625 7.625 -3.265625 C 9.40625 -3.265625 10.296875 -3.78125 10.296875 -4.8125 C 10.296875 -5.195312 10.175781 -5.507812 9.9375 -5.75 C 9.707031 -6 9.300781 -6.273438 8.71875 -6.578125 C 8.132812 -6.890625 7.359375 -7.25 6.390625 -7.65625 C 5.003906 -8.238281 3.988281 -8.773438 3.34375 -9.265625 C 2.695312 -9.753906 2.222656 -10.316406 1.921875 -10.953125 C 1.628906 -11.597656 1.484375 -12.390625 1.484375 -13.328125 C 1.484375 -14.929688 2.101562 -16.171875 3.34375 -17.046875 C 4.582031 -17.921875 6.34375 -18.359375 8.625 -18.359375 C 10.789062 -18.359375 12.898438 -17.882812 14.953125 -16.9375 L 13.46875 -13.390625 C 12.570312 -13.773438 11.726562 -14.09375 10.9375 -14.34375 C 10.15625 -14.59375 9.359375 -14.71875 8.546875 -14.71875 C 7.085938 -14.71875 6.359375 -14.320312 6.359375 -13.53125 C 6.359375 -13.09375 6.59375 -12.710938 7.0625 -12.390625 C 7.53125 -12.066406 8.554688 -11.585938 10.140625 -10.953125 C 11.546875 -10.390625 12.578125 -9.859375 13.234375 -9.359375 C 13.890625 -8.867188 14.367188 -8.300781 14.671875 -7.65625 C 14.984375 -7.007812 15.140625 -6.238281 15.140625 -5.34375 Z M 15.140625 -5.34375 "/></g></g></g><g fill="#ffbb33" fill-opacity="1"><g transform="translate(305.406936, 61.992453)"><g><path d="M 10.171875 -3.59375 C 11.023438 -3.59375 12.054688 -3.78125 13.265625 -4.15625 L 13.265625 -0.5 C 12.035156 0.0507812 10.53125 0.328125 8.75 0.328125 C 6.78125 0.328125 5.347656 -0.164062 4.453125 -1.15625 C 3.554688 -2.15625 3.109375 -3.648438 3.109375 -5.640625 L 3.109375 -14.328125 L 0.75 -14.328125 L 0.75 -16.40625 L 3.46875 -18.046875 L 4.875 -21.84375 L 8.03125 -21.84375 L 8.03125 -18.015625 L 13.0625 -18.015625 L 13.0625 -14.328125 L 8.03125 -14.328125 L 8.03125 -5.640625 C 8.03125 -4.941406 8.222656 -4.425781 8.609375 -4.09375 C 9.003906 -3.757812 9.523438 -3.59375 10.171875 -3.59375 Z M 10.171875 -3.59375 "/></g></g></g><g fill="#ffbb33" fill-opacity="1"><g transform="translate(319.726561, 61.992453)"><g><path d="M 15.140625 -5.34375 C 15.140625 -3.5 14.5 -2.09375 13.21875 -1.125 C 11.9375 -0.15625 10.015625 0.328125 7.453125 0.328125 C 6.148438 0.328125 5.035156 0.238281 4.109375 0.0625 C 3.179688 -0.113281 2.316406 -0.375 1.515625 -0.71875 L 1.515625 -4.78125 C 2.429688 -4.351562 3.457031 -3.992188 4.59375 -3.703125 C 5.738281 -3.410156 6.75 -3.265625 7.625 -3.265625 C 9.40625 -3.265625 10.296875 -3.78125 10.296875 -4.8125 C 10.296875 -5.195312 10.175781 -5.507812 9.9375 -5.75 C 9.707031 -6 9.300781 -6.273438 8.71875 -6.578125 C 8.132812 -6.890625 7.359375 -7.25 6.390625 -7.65625 C 5.003906 -8.238281 3.988281 -8.773438 3.34375 -9.265625 C 2.695312 -9.753906 2.222656 -10.316406 1.921875 -10.953125 C 1.628906 -11.597656 1.484375 -12.390625 1.484375 -13.328125 C 1.484375 -14.929688 2.101562 -16.171875 3.34375 -17.046875 C 4.582031 -17.921875 6.34375 -18.359375 8.625 -18.359375 C 10.789062 -18.359375 12.898438 -17.882812 14.953125 -16.9375 L 13.46875 -13.390625 C 12.570312 -13.773438 11.726562 -14.09375 10.9375 -14.34375 C 10.15625 -14.59375 9.359375 -14.71875 8.546875 -14.71875 C 7.085938 -14.71875 6.359375 -14.320312 6.359375 -13.53125 C 6.359375 -13.09375 6.59375 -12.710938 7.0625 -12.390625 C 7.53125 -12.066406 8.554688 -11.585938 10.140625 -10.953125 C 11.546875 -10.390625 12.578125 -9.859375 13.234375 -9.359375 C 13.890625 -8.867188 14.367188 -8.300781 14.671875 -7.65625 C 14.984375 -7.007812 15.140625 -6.238281 15.140625 -5.34375 Z M 15.140625 -5.34375 "/></g></g></g><g fill="#3f3d56" fill-opacity="1"><g transform="translate(32.701093, 60.492453)"><g><path d="M 2.609375 -20.703125 L 9.046875 -20.703125 C 11.984375 -20.703125 14.113281 -20.285156 15.4375 -19.453125 C 16.769531 -18.617188 17.4375 -17.289062 17.4375 -15.46875 C 17.4375 -14.226562 17.144531 -13.210938 16.5625 -12.421875 C 15.976562 -11.628906 15.207031 -11.148438 14.25 -10.984375 L 14.25 -10.84375 C 15.5625 -10.550781 16.503906 -10.003906 17.078125 -9.203125 C 17.660156 -8.398438 17.953125 -7.332031 17.953125 -6 C 17.953125 -4.113281 17.269531 -2.640625 15.90625 -1.578125 C 14.539062 -0.523438 12.6875 0 10.34375 0 L 2.609375 0 Z M 7 -12.5 L 9.546875 -12.5 C 10.734375 -12.5 11.59375 -12.679688 12.125 -13.046875 C 12.65625 -13.421875 12.921875 -14.03125 12.921875 -14.875 C 12.921875 -15.675781 12.628906 -16.25 12.046875 -16.59375 C 11.472656 -16.9375 10.554688 -17.109375 9.296875 -17.109375 L 7 -17.109375 Z M 7 -9.015625 L 7 -3.625 L 9.859375 -3.625 C 11.066406 -3.625 11.957031 -3.851562 12.53125 -4.3125 C 13.101562 -4.78125 13.390625 -5.488281 13.390625 -6.4375 C 13.390625 -8.15625 12.164062 -9.015625 9.71875 -9.015625 Z M 7 -9.015625 "/></g></g></g><g fill="#3f3d56" fill-opacity="1"><g transform="translate(52.180218, 60.492453)"><g><path d="M 8.828125 -13.0625 C 7.910156 -13.0625 7.191406 -12.769531 6.671875 -12.1875 C 6.148438 -11.601562 5.851562 -10.78125 5.78125 -9.71875 L 11.84375 -9.71875 C 11.820312 -10.78125 11.539062 -11.601562 11 -12.1875 C 10.46875 -12.769531 9.742188 -13.0625 8.828125 -13.0625 Z M 9.4375 0.28125 C 6.882812 0.28125 4.890625 -0.421875 3.453125 -1.828125 C 2.015625 -3.234375 1.296875 -5.222656 1.296875 -7.796875 C 1.296875 -10.453125 1.957031 -12.503906 3.28125 -13.953125 C 4.613281 -15.398438 6.453125 -16.125 8.796875 -16.125 C 11.035156 -16.125 12.773438 -15.488281 14.015625 -14.21875 C 15.265625 -12.945312 15.890625 -11.1875 15.890625 -8.9375 L 15.890625 -6.84375 L 5.671875 -6.84375 C 5.722656 -5.613281 6.085938 -4.65625 6.765625 -3.96875 C 7.441406 -3.28125 8.394531 -2.9375 9.625 -2.9375 C 10.582031 -2.9375 11.484375 -3.035156 12.328125 -3.234375 C 13.179688 -3.429688 14.070312 -3.742188 15 -4.171875 L 15 -0.828125 C 14.238281 -0.453125 13.425781 -0.175781 12.5625 0 C 11.707031 0.1875 10.664062 0.28125 9.4375 0.28125 Z M 9.4375 0.28125 "/></g></g></g><g fill="#3f3d56" fill-opacity="1"><g transform="translate(69.30939, 60.492453)"><g><path d="M 16.4375 0 L 12.125 0 L 12.125 -9.25 C 12.125 -10.382812 11.929688 -11.238281 11.546875 -11.8125 C 11.160156 -12.382812 10.5625 -12.671875 9.75 -12.671875 C 8.632812 -12.671875 7.828125 -12.265625 7.328125 -11.453125 C 6.828125 -10.640625 6.578125 -9.304688 6.578125 -7.453125 L 6.578125 0 L 2.265625 0 L 2.265625 -15.828125 L 5.5625 -15.828125 L 6.140625 -13.8125 L 6.390625 -13.8125 C 6.816406 -14.53125 7.429688 -15.09375 8.234375 -15.5 C 9.035156 -15.914062 9.953125 -16.125 10.984375 -16.125 C 13.359375 -16.125 14.960938 -15.351562 15.796875 -13.8125 L 16.1875 -13.8125 C 16.613281 -14.539062 17.238281 -15.109375 18.0625 -15.515625 C 18.882812 -15.921875 19.816406 -16.125 20.859375 -16.125 C 22.648438 -16.125 24.003906 -15.664062 24.921875 -14.75 C 25.847656 -13.832031 26.3125 -12.359375 26.3125 -10.328125 L 26.3125 0 L 21.984375 0 L 21.984375 -9.25 C 21.984375 -10.382812 21.789062 -11.238281 21.40625 -11.8125 C 21.019531 -12.382812 20.414062 -12.671875 19.59375 -12.671875 C 18.539062 -12.671875 17.75 -12.289062 17.21875 -11.53125 C 16.695312 -10.78125 16.4375 -9.582031 16.4375 -7.9375 Z M 16.4375 0 "/></g></g></g><g fill="#3f3d56" fill-opacity="1"><g transform="translate(97.777791, 60.492453)"><g/></g></g><g fill="#3f3d56" fill-opacity="1"><g transform="translate(105.308964, 60.492453)"><g><path d="M 6.03125 0 L 0 -15.828125 L 4.515625 -15.828125 L 7.578125 -6.8125 C 7.910156 -5.664062 8.125 -4.582031 8.21875 -3.5625 L 8.296875 -3.5625 C 8.347656 -4.46875 8.5625 -5.550781 8.9375 -6.8125 L 11.984375 -15.828125 L 16.5 -15.828125 L 10.46875 0 Z M 6.03125 0 "/></g></g></g><g fill="#3f3d56" fill-opacity="1"><g transform="translate(121.8011, 60.492453)"><g><path d="M 2.078125 -19.921875 C 2.078125 -21.328125 2.863281 -22.03125 4.4375 -22.03125 C 6 -22.03125 6.78125 -21.328125 6.78125 -19.921875 C 6.78125 -19.253906 6.582031 -18.734375 6.1875 -18.359375 C 5.800781 -17.984375 5.21875 -17.796875 4.4375 -17.796875 C 2.863281 -17.796875 2.078125 -18.503906 2.078125 -19.921875 Z M 6.578125 0 L 2.265625 0 L 2.265625 -15.828125 L 6.578125 -15.828125 Z M 6.578125 0 "/></g></g></g><g fill="#3f3d56" fill-opacity="1"><g transform="translate(130.648813, 60.492453)"><g><path d="M 16.875 0 L 12.5625 0 L 12.5625 -9.25 C 12.5625 -10.382812 12.359375 -11.238281 11.953125 -11.8125 C 11.546875 -12.382812 10.898438 -12.671875 10.015625 -12.671875 C 8.804688 -12.671875 7.929688 -12.265625 7.390625 -11.453125 C 6.847656 -10.648438 6.578125 -9.316406 6.578125 -7.453125 L 6.578125 0 L 2.265625 0 L 2.265625 -15.828125 L 5.5625 -15.828125 L 6.140625 -13.8125 L 6.390625 -13.8125 C 6.867188 -14.570312 7.53125 -15.144531 8.375 -15.53125 C 9.21875 -15.925781 10.175781 -16.125 11.25 -16.125 C 13.09375 -16.125 14.488281 -15.625 15.4375 -14.625 C 16.394531 -13.632812 16.875 -12.203125 16.875 -10.328125 Z M 16.875 0 "/></g></g></g><g fill="#3f3d56" fill-opacity="1"><g transform="translate(149.703248, 60.492453)"><g><path d="M 7.28125 0.28125 C 5.414062 0.28125 3.953125 -0.4375 2.890625 -1.875 C 1.828125 -3.320312 1.296875 -5.328125 1.296875 -7.890625 C 1.296875 -10.484375 1.835938 -12.503906 2.921875 -13.953125 C 4.003906 -15.398438 5.492188 -16.125 7.390625 -16.125 C 9.378906 -16.125 10.898438 -15.351562 11.953125 -13.8125 L 12.09375 -13.8125 C 11.875 -14.988281 11.765625 -16.039062 11.765625 -16.96875 L 11.765625 -22.03125 L 16.09375 -22.03125 L 16.09375 0 L 12.78125 0 L 11.953125 -2.046875 L 11.765625 -2.046875 C 10.785156 -0.492188 9.289062 0.28125 7.28125 0.28125 Z M 8.796875 -3.15625 C 9.898438 -3.15625 10.707031 -3.472656 11.21875 -4.109375 C 11.738281 -4.753906 12.019531 -5.847656 12.0625 -7.390625 L 12.0625 -7.859375 C 12.0625 -9.554688 11.800781 -10.769531 11.28125 -11.5 C 10.757812 -12.238281 9.90625 -12.609375 8.71875 -12.609375 C 7.757812 -12.609375 7.007812 -12.203125 6.46875 -11.390625 C 5.9375 -10.578125 5.671875 -9.390625 5.671875 -7.828125 C 5.671875 -6.273438 5.941406 -5.109375 6.484375 -4.328125 C 7.023438 -3.546875 7.796875 -3.15625 8.796875 -3.15625 Z M 8.796875 -3.15625 "/></g></g></g><g fill="#3f3d56" fill-opacity="1"><g transform="translate(168.049865, 60.492453)"><g><path d="M 5.703125 -7.9375 C 5.703125 -6.375 5.957031 -5.191406 6.46875 -4.390625 C 6.988281 -3.585938 7.828125 -3.1875 8.984375 -3.1875 C 10.140625 -3.1875 10.96875 -3.582031 11.46875 -4.375 C 11.976562 -5.175781 12.234375 -6.363281 12.234375 -7.9375 C 12.234375 -9.507812 11.976562 -10.6875 11.46875 -11.46875 C 10.957031 -12.25 10.125 -12.640625 8.96875 -12.640625 C 7.8125 -12.640625 6.976562 -12.25 6.46875 -11.46875 C 5.957031 -10.695312 5.703125 -9.519531 5.703125 -7.9375 Z M 16.65625 -7.9375 C 16.65625 -5.363281 15.972656 -3.347656 14.609375 -1.890625 C 13.253906 -0.441406 11.363281 0.28125 8.9375 0.28125 C 7.414062 0.28125 6.070312 -0.0507812 4.90625 -0.71875 C 3.75 -1.382812 2.859375 -2.335938 2.234375 -3.578125 C 1.609375 -4.828125 1.296875 -6.28125 1.296875 -7.9375 C 1.296875 -10.53125 1.972656 -12.539062 3.328125 -13.96875 C 4.679688 -15.40625 6.578125 -16.125 9.015625 -16.125 C 10.535156 -16.125 11.875 -15.789062 13.03125 -15.125 C 14.195312 -14.46875 15.09375 -13.519531 15.71875 -12.28125 C 16.34375 -11.050781 16.65625 -9.601562 16.65625 -7.9375 Z M 16.65625 -7.9375 "/></g></g></g><g fill="#3f3d56" fill-opacity="1"><g transform="translate(193.531278, 60.492453)"><g><path d="M 12.3125 0 L 11.484375 -2.15625 L 11.375 -2.15625 C 10.644531 -1.238281 9.894531 -0.601562 9.125 -0.25 C 8.351562 0.101562 7.351562 0.28125 6.125 0.28125 C 4.601562 0.28125 3.40625 -0.148438 2.53125 -1.015625 C 1.65625 -1.890625 1.21875 -3.128906 1.21875 -4.734375 C 1.21875 -6.410156 1.804688 -7.644531 2.984375 -8.4375 C 4.160156 -9.238281 5.929688 -9.679688 8.296875 -9.765625 L 11.046875 -9.859375 L 11.046875 -10.546875 C 11.046875 -12.148438 10.222656 -12.953125 8.578125 -12.953125 C 7.316406 -12.953125 5.832031 -12.570312 4.125 -11.8125 L 2.6875 -14.734375 C 4.507812 -15.679688 6.53125 -16.15625 8.75 -16.15625 C 10.875 -16.15625 12.5 -15.691406 13.625 -14.765625 C 14.757812 -13.835938 15.328125 -12.429688 15.328125 -10.546875 L 15.328125 0 Z M 11.046875 -7.328125 L 9.375 -7.28125 C 8.113281 -7.238281 7.175781 -7.007812 6.5625 -6.59375 C 5.957031 -6.175781 5.65625 -5.546875 5.65625 -4.703125 C 5.65625 -3.484375 6.351562 -2.875 7.75 -2.875 C 8.75 -2.875 9.546875 -3.160156 10.140625 -3.734375 C 10.742188 -4.316406 11.046875 -5.082031 11.046875 -6.03125 Z M 11.046875 -7.328125 "/></g></g></g><g fill="#3f3d56" fill-opacity="1"><g transform="translate(211.042671, 60.492453)"><g><path d="M 5.703125 -7.9375 C 5.703125 -6.375 5.957031 -5.191406 6.46875 -4.390625 C 6.988281 -3.585938 7.828125 -3.1875 8.984375 -3.1875 C 10.140625 -3.1875 10.96875 -3.582031 11.46875 -4.375 C 11.976562 -5.175781 12.234375 -6.363281 12.234375 -7.9375 C 12.234375 -9.507812 11.976562 -10.6875 11.46875 -11.46875 C 10.957031 -12.25 10.125 -12.640625 8.96875 -12.640625 C 7.8125 -12.640625 6.976562 -12.25 6.46875 -11.46875 C 5.957031 -10.695312 5.703125 -9.519531 5.703125 -7.9375 Z M 16.65625 -7.9375 C 16.65625 -5.363281 15.972656 -3.347656 14.609375 -1.890625 C 13.253906 -0.441406 11.363281 0.28125 8.9375 0.28125 C 7.414062 0.28125 6.070312 -0.0507812 4.90625 -0.71875 C 3.75 -1.382812 2.859375 -2.335938 2.234375 -3.578125 C 1.609375 -4.828125 1.296875 -6.28125 1.296875 -7.9375 C 1.296875 -10.53125 1.972656 -12.539062 3.328125 -13.96875 C 4.679688 -15.40625 6.578125 -16.125 9.015625 -16.125 C 10.535156 -16.125 11.875 -15.789062 13.03125 -15.125 C 14.195312 -14.46875 15.09375 -13.519531 15.71875 -12.28125 C 16.34375 -11.050781 16.65625 -9.601562 16.65625 -7.9375 Z M 16.65625 -7.9375 "/></g></g></g></svg>