<svg xmlns="http://www.w3.org/2000/svg" xmlns:xlink="http://www.w3.org/1999/xlink" width="500" zoomAndPan="magnify" viewBox="0 0 375 374.999991" height="500" preserveAspectRatio="xMidYMid meet" version="1.0"><defs><clipPath id="id1"><path d="M 64.4375 82 L 310.4375 82 L 310.4375 361.203125 L 64.4375 361.203125 Z M 64.4375 82 " clip-rule="nonzero"/></clipPath><clipPath id="id2"><path d="M 122 13.953125 L 160 13.953125 L 160 61 L 122 61 Z M 122 13.953125 " clip-rule="nonzero"/></clipPath><clipPath id="id3"><path d="M 167 13.953125 L 205 13.953125 L 205 62 L 167 62 Z M 167 13.953125 " clip-rule="nonzero"/></clipPath><clipPath id="id4"><path d="M 211 13.953125 L 250 13.953125 L 250 62 L 211 62 Z M 211 13.953125 " clip-rule="nonzero"/></clipPath></defs><g clip-path="url(#id1)"><path fill="#264de4" d="M 187.332031 361.191406 L 86.964844 333.304688 L 64.601562 82.195312 L 310.363281 82.191406 L 287.984375 333.261719 L 187.339844 361.1875 Z M 187.332031 361.191406 " fill-opacity="1" fill-rule="nonzero"/></g><path fill="#2965f1" d="M 268.816406 317.277344 L 287.949219 102.726562 L 187.488281 102.722656 L 187.488281 339.839844 L 268.816406 317.273438 Z M 268.816406 317.277344 " fill-opacity="1" fill-rule="nonzero"/><path fill="#ebebeb" d="M 115.875 195.859375 L 118.632812 226.652344 L 187.488281 226.652344 L 187.488281 195.859375 Z M 115.875 195.859375 " fill-opacity="1" fill-rule="nonzero"/><path fill="#ebebeb" d="M 110.335938 133.519531 L 113.132812 164.316406 L 187.488281 164.316406 L 187.488281 133.519531 Z M 110.335938 133.519531 " fill-opacity="1" fill-rule="nonzero"/><path fill="#ebebeb" d="M 187.488281 275.839844 L 187.351562 275.878906 L 153.085938 266.613281 L 150.894531 242.050781 L 120.007812 242.050781 L 124.320312 290.414062 L 187.34375 307.925781 L 187.488281 307.886719 Z M 187.488281 275.839844 " fill-opacity="1" fill-rule="nonzero"/><g clip-path="url(#id2)"><path fill="#000000" d="M 122.441406 13.953125 L 159.707031 13.953125 L 159.707031 29.550781 L 138.023438 29.550781 L 138.023438 45.148438 L 159.707031 45.148438 L 159.707031 60.746094 L 122.441406 60.746094 Z M 122.441406 13.953125 " fill-opacity="1" fill-rule="nonzero"/></g><g clip-path="url(#id3)"><path fill="#000000" d="M 167.160156 13.953125 L 204.425781 13.953125 L 204.425781 27.515625 L 182.746094 27.515625 L 182.746094 30.230469 L 204.425781 30.230469 L 204.425781 61.425781 L 167.160156 61.425781 L 167.160156 47.183594 L 188.84375 47.183594 L 188.84375 44.472656 L 167.160156 44.472656 Z M 167.160156 13.953125 " fill-opacity="1" fill-rule="nonzero"/></g><g clip-path="url(#id4)"><path fill="#000000" d="M 211.878906 13.953125 L 249.144531 13.953125 L 249.144531 27.515625 L 227.457031 27.515625 L 227.457031 30.230469 L 249.144531 30.230469 L 249.144531 61.425781 L 211.878906 61.425781 L 211.878906 47.183594 L 233.558594 47.183594 L 233.558594 44.472656 L 211.878906 44.472656 Z M 211.878906 13.953125 " fill-opacity="1" fill-rule="nonzero"/></g><path fill="#ffffff" d="M 258.902344 195.859375 L 264.453125 133.519531 L 187.382812 133.519531 L 187.382812 164.316406 L 230.734375 164.316406 L 227.941406 195.859375 L 187.382812 195.859375 L 187.382812 226.652344 L 225.273438 226.652344 L 221.699219 266.59375 L 187.382812 275.871094 L 187.382812 307.90625 L 250.457031 290.414062 L 250.917969 285.203125 L 258.152344 204.125 Z M 258.902344 195.859375 " fill-opacity="1" fill-rule="nonzero"/></svg>