<svg xmlns="http://www.w3.org/2000/svg" xmlns:xlink="http://www.w3.org/1999/xlink" width="500" zoomAndPan="magnify" viewBox="0 0 375 374.999991" height="500" preserveAspectRatio="xMidYMid meet" version="1.0"><defs><clipPath id="id1"><path d="M 39.710938 39.710938 L 335.210938 39.710938 L 335.210938 335.210938 L 39.710938 335.210938 Z M 39.710938 39.710938 " clip-rule="nonzero"/></clipPath></defs><g clip-path="url(#id1)"><path fill="#e55151" d="M 335.167969 187.429688 C 335.167969 189.847656 335.109375 192.265625 334.992188 194.679688 C 334.871094 197.09375 334.695312 199.507812 334.457031 201.914062 C 334.222656 204.316406 333.925781 206.71875 333.570312 209.109375 C 333.214844 211.5 332.800781 213.882812 332.332031 216.253906 C 331.859375 218.625 331.328125 220.984375 330.742188 223.328125 C 330.152344 225.675781 329.507812 228.003906 328.808594 230.316406 C 328.105469 232.632812 327.347656 234.925781 326.53125 237.203125 C 325.71875 239.480469 324.847656 241.734375 323.921875 243.96875 C 323 246.203125 322.019531 248.410156 320.984375 250.597656 C 319.949219 252.78125 318.863281 254.941406 317.722656 257.074219 C 316.585938 259.207031 315.394531 261.308594 314.148438 263.382812 C 312.90625 265.457031 311.613281 267.5 310.269531 269.511719 C 308.925781 271.519531 307.535156 273.496094 306.09375 275.4375 C 304.65625 277.378906 303.167969 279.285156 301.632812 281.15625 C 300.101562 283.023438 298.523438 284.855469 296.898438 286.644531 C 295.273438 288.4375 293.609375 290.1875 291.898438 291.898438 C 290.1875 293.609375 288.4375 295.273438 286.644531 296.898438 C 284.855469 298.523438 283.023438 300.101562 281.15625 301.632812 C 279.285156 303.167969 277.378906 304.65625 275.4375 306.09375 C 273.496094 307.535156 271.519531 308.925781 269.511719 310.269531 C 267.5 311.613281 265.457031 312.90625 263.382812 314.148438 C 261.308594 315.394531 259.207031 316.585938 257.074219 317.722656 C 254.941406 318.863281 252.78125 319.949219 250.597656 320.984375 C 248.410156 322.019531 246.203125 323 243.96875 323.921875 C 241.734375 324.847656 239.480469 325.71875 237.203125 326.53125 C 234.925781 327.347656 232.632812 328.105469 230.316406 328.808594 C 228.003906 329.507812 225.675781 330.152344 223.328125 330.742188 C 220.984375 331.328125 218.625 331.859375 216.253906 332.332031 C 213.882812 332.800781 211.5 333.214844 209.109375 333.570312 C 206.71875 333.925781 204.316406 334.222656 201.914062 334.457031 C 199.507812 334.695312 197.09375 334.871094 194.679688 334.992188 C 192.265625 335.109375 189.847656 335.167969 187.429688 335.167969 C 185.011719 335.167969 182.597656 335.109375 180.183594 334.992188 C 177.765625 334.871094 175.355469 334.695312 172.949219 334.457031 C 170.542969 334.222656 168.144531 333.925781 165.753906 333.570312 C 163.363281 333.214844 160.980469 332.800781 158.609375 332.332031 C 156.238281 331.859375 153.878906 331.328125 151.535156 330.742188 C 149.1875 330.152344 146.859375 329.507812 144.546875 328.808594 C 142.230469 328.105469 139.9375 327.347656 137.660156 326.53125 C 135.382812 325.71875 133.128906 324.847656 130.894531 323.921875 C 128.660156 323 126.449219 322.019531 124.265625 320.984375 C 122.078125 319.949219 119.921875 318.863281 117.789062 317.722656 C 115.65625 316.585938 113.550781 315.394531 111.480469 314.148438 C 109.40625 312.90625 107.363281 311.613281 105.351562 310.269531 C 103.34375 308.925781 101.367188 307.535156 99.425781 306.09375 C 97.480469 304.65625 95.578125 303.167969 93.707031 301.632812 C 91.839844 300.101562 90.007812 298.523438 88.214844 296.898438 C 86.425781 295.273438 84.675781 293.609375 82.964844 291.898438 C 81.253906 290.1875 79.589844 288.4375 77.964844 286.644531 C 76.339844 284.855469 74.761719 283.023438 73.226562 281.15625 C 71.695312 279.285156 70.207031 277.378906 68.765625 275.4375 C 67.328125 273.496094 65.933594 271.519531 64.589844 269.511719 C 63.25 267.5 61.957031 265.457031 60.710938 263.382812 C 59.46875 261.308594 58.277344 259.207031 57.136719 257.074219 C 56 254.941406 54.910156 252.78125 53.878906 250.597656 C 52.84375 248.410156 51.863281 246.203125 50.9375 243.96875 C 50.015625 241.734375 49.144531 239.480469 48.328125 237.203125 C 47.515625 234.925781 46.757812 232.632812 46.054688 230.316406 C 45.351562 228.003906 44.707031 225.675781 44.121094 223.328125 C 43.535156 220.984375 43.003906 218.625 42.53125 216.253906 C 42.058594 213.882812 41.648438 211.5 41.292969 209.109375 C 40.9375 206.71875 40.640625 204.316406 40.40625 201.914062 C 40.167969 199.507812 39.988281 197.09375 39.871094 194.679688 C 39.753906 192.265625 39.691406 189.847656 39.691406 187.429688 C 39.691406 185.011719 39.753906 182.597656 39.871094 180.183594 C 39.988281 177.765625 40.167969 175.355469 40.40625 172.949219 C 40.640625 170.542969 40.9375 168.144531 41.292969 165.753906 C 41.648438 163.363281 42.058594 160.980469 42.53125 158.609375 C 43.003906 156.238281 43.535156 153.878906 44.121094 151.535156 C 44.707031 149.1875 45.351562 146.859375 46.054688 144.546875 C 46.757812 142.230469 47.515625 139.9375 48.328125 137.660156 C 49.144531 135.382812 50.015625 133.128906 50.9375 130.894531 C 51.863281 128.660156 52.84375 126.449219 53.878906 124.265625 C 54.910156 122.078125 56 119.921875 57.136719 117.789062 C 58.277344 115.65625 59.46875 113.550781 60.710938 111.480469 C 61.957031 109.40625 63.25 107.363281 64.589844 105.351562 C 65.933594 103.34375 67.328125 101.367188 68.765625 99.425781 C 70.207031 97.480469 71.695312 95.578125 73.226562 93.707031 C 74.761719 91.839844 76.339844 90.007812 77.964844 88.214844 C 79.589844 86.425781 81.253906 84.675781 82.964844 82.964844 C 84.675781 81.253906 86.425781 79.589844 88.214844 77.964844 C 90.007812 76.339844 91.839844 74.761719 93.707031 73.226562 C 95.578125 71.695312 97.480469 70.207031 99.425781 68.765625 C 101.367188 67.328125 103.34375 65.933594 105.351562 64.589844 C 107.363281 63.25 109.40625 61.957031 111.480469 60.710938 C 113.550781 59.46875 115.65625 58.277344 117.789062 57.136719 C 119.921875 56 122.078125 54.910156 124.265625 53.878906 C 126.449219 52.84375 128.660156 51.863281 130.894531 50.9375 C 133.128906 50.015625 135.382812 49.144531 137.660156 48.328125 C 139.9375 47.515625 142.230469 46.757812 144.546875 46.054688 C 146.859375 45.351562 149.1875 44.707031 151.535156 44.121094 C 153.878906 43.535156 156.238281 43.003906 158.609375 42.53125 C 160.980469 42.058594 163.363281 41.648438 165.753906 41.292969 C 168.144531 40.9375 170.542969 40.640625 172.949219 40.40625 C 175.355469 40.167969 177.765625 39.988281 180.183594 39.871094 C 182.597656 39.753906 185.011719 39.691406 187.429688 39.691406 C 189.847656 39.691406 192.265625 39.753906 194.679688 39.871094 C 197.09375 39.988281 199.507812 40.167969 201.914062 40.40625 C 204.316406 40.640625 206.71875 40.9375 209.109375 41.292969 C 211.5 41.648438 213.882812 42.058594 216.253906 42.53125 C 218.625 43.003906 220.984375 43.535156 223.328125 44.121094 C 225.675781 44.707031 228.003906 45.351562 230.316406 46.054688 C 232.632812 46.757812 234.925781 47.515625 237.203125 48.328125 C 239.480469 49.144531 241.734375 50.015625 243.96875 50.9375 C 246.203125 51.863281 248.410156 52.84375 250.597656 53.878906 C 252.78125 54.910156 254.941406 56 257.074219 57.136719 C 259.207031 58.277344 261.308594 59.46875 263.382812 60.710938 C 265.457031 61.957031 267.5 63.25 269.511719 64.589844 C 271.519531 65.933594 273.496094 67.328125 275.4375 68.765625 C 277.378906 70.207031 279.285156 71.695312 281.15625 73.226562 C 283.023438 74.761719 284.855469 76.339844 286.644531 77.964844 C 288.4375 79.589844 290.1875 81.253906 291.898438 82.964844 C 293.609375 84.675781 295.273438 86.425781 296.898438 88.214844 C 298.523438 90.007812 300.101562 91.839844 301.632812 93.707031 C 303.167969 95.578125 304.65625 97.480469 306.09375 99.425781 C 307.535156 101.367188 308.925781 103.34375 310.269531 105.351562 C 311.613281 107.363281 312.90625 109.40625 314.148438 111.480469 C 315.394531 113.550781 316.585938 115.65625 317.722656 117.789062 C 318.863281 119.921875 319.949219 122.078125 320.984375 124.265625 C 322.019531 126.449219 323 128.660156 323.921875 130.894531 C 324.847656 133.128906 325.71875 135.382812 326.53125 137.660156 C 327.347656 139.9375 328.105469 142.230469 328.808594 144.546875 C 329.507812 146.859375 330.152344 149.1875 330.742188 151.535156 C 331.328125 153.878906 331.859375 156.238281 332.332031 158.609375 C 332.800781 160.980469 333.214844 163.363281 333.570312 165.753906 C 333.925781 168.144531 334.222656 170.542969 334.457031 172.949219 C 334.695312 175.355469 334.871094 177.765625 334.992188 180.183594 C 335.109375 182.597656 335.167969 185.011719 335.167969 187.429688 Z M 335.167969 187.429688 " fill-opacity="1" fill-rule="nonzero"/></g><path fill="#ffffff" d="M 130.265625 258.816406 L 130.265625 116.042969 L 244.597656 116.042969 L 244.597656 258.816406 L 191.328125 211.769531 Z M 130.265625 258.816406 " fill-opacity="1" fill-rule="nonzero"/></svg>