<svg xmlns="http://www.w3.org/2000/svg" xmlns:xlink="http://www.w3.org/1999/xlink" width="500" zoomAndPan="magnify" viewBox="0 0 375 374.999991" height="500" preserveAspectRatio="xMidYMid meet" version="1.0"><defs><clipPath id="id1"><path d="M 159 78.421875 L 216 78.421875 L 216 198 L 159 198 Z M 159 78.421875 " clip-rule="nonzero"/></clipPath></defs><path fill="#5382a1" d="M 159.738281 245.773438 C 159.738281 245.773438 151.460938 250.585938 165.628906 252.214844 C 182.800781 254.167969 191.570312 253.886719 210.488281 250.308594 C 210.488281 250.308594 215.460938 253.421875 222.410156 256.125 C 180.003906 274.285156 126.425781 255.070312 159.738281 245.773438 " fill-opacity="1" fill-rule="nonzero"/><path fill="#5382a1" d="M 154.554688 222.078125 C 154.554688 222.078125 145.269531 228.949219 159.449219 230.414062 C 177.789062 232.300781 192.269531 232.457031 217.332031 227.632812 C 217.332031 227.632812 220.800781 231.148438 226.25 233.066406 C 174.972656 248.039062 117.859375 234.25 154.554688 222.078125 " fill-opacity="1" fill-rule="nonzero"/><path fill="#e76f00" d="M 198.242188 181.882812 C 208.691406 193.90625 195.496094 204.722656 195.496094 204.722656 C 195.496094 204.722656 222.035156 191.039062 209.847656 173.898438 C 198.460938 157.921875 189.738281 149.980469 236.988281 122.605469 C 236.988281 122.605469 162.820312 141.109375 198.242188 181.882812 " fill-opacity="1" fill-rule="nonzero"/><path fill="#5382a1" d="M 254.332031 263.296875 C 254.332031 263.296875 260.460938 268.34375 247.589844 272.246094 C 223.109375 279.652344 145.695312 281.890625 124.195312 272.542969 C 116.464844 269.183594 130.960938 264.519531 135.523438 263.535156 C 140.277344 262.507812 142.996094 262.703125 142.996094 262.703125 C 134.398438 256.652344 87.429688 274.578125 119.136719 279.714844 C 205.605469 293.722656 276.761719 273.40625 254.332031 263.296875 " fill-opacity="1" fill-rule="nonzero"/><path fill="#5382a1" d="M 163.71875 197.527344 C 163.71875 197.527344 124.34375 206.871094 149.777344 210.261719 C 160.511719 211.703125 181.921875 211.378906 201.855469 209.703125 C 218.152344 208.332031 234.519531 205.410156 234.519531 205.410156 C 234.519531 205.410156 228.773438 207.875 224.613281 210.707031 C 184.625 221.214844 107.382812 216.328125 129.621094 205.582031 C 148.429688 196.5 163.71875 197.527344 163.71875 197.527344 " fill-opacity="1" fill-rule="nonzero"/><path fill="#5382a1" d="M 234.355469 236.96875 C 275 215.871094 256.203125 195.59375 243.085938 198.324219 C 239.875 198.996094 238.4375 199.570312 238.4375 199.570312 C 238.4375 199.570312 239.628906 197.703125 241.914062 196.894531 C 267.863281 187.785156 287.824219 223.777344 233.53125 238.035156 C 233.53125 238.035156 234.167969 237.46875 234.355469 236.96875 " fill-opacity="1" fill-rule="nonzero"/><g clip-path="url(#id1)"><path fill="#e76f00" d="M 209.847656 78.40625 C 209.847656 78.40625 232.359375 100.898438 188.496094 135.488281 C 153.324219 163.234375 180.480469 179.058594 188.484375 197.136719 C 167.953125 178.628906 152.886719 162.339844 162.992188 147.179688 C 177.832031 124.925781 218.929688 114.136719 209.847656 78.402344 " fill-opacity="1" fill-rule="nonzero"/></g><path fill="#5382a1" d="M 167.710938 294.148438 C 206.730469 296.640625 266.636719 292.761719 268.054688 274.320312 C 268.054688 274.320312 265.328125 281.308594 235.816406 286.859375 C 202.511719 293.121094 161.441406 292.390625 137.082031 288.375 C 137.082031 288.375 142.070312 292.5 167.710938 294.148438 " fill-opacity="1" fill-rule="nonzero"/></svg>