<svg xmlns="http://www.w3.org/2000/svg" xmlns:xlink="http://www.w3.org/1999/xlink" width="500" zoomAndPan="magnify" viewBox="0 0 375 374.999991" height="500" preserveAspectRatio="xMidYMid meet" version="1.0"><defs><clipPath id="id1"><path d="M 2.632812 112 L 372.382812 112 L 372.382812 330 L 2.632812 330 Z M 2.632812 112 " clip-rule="nonzero"/></clipPath><clipPath id="id2"><path d="M 123 188 L 205 188 L 205 304 L 123 304 Z M 123 188 " clip-rule="nonzero"/></clipPath><clipPath id="id3"><path d="M 123.648438 303.089844 L 204.699219 279.992188 L 144.386719 188.210938 Z M 123.648438 303.089844 " clip-rule="nonzero"/></clipPath><linearGradient x1="158.5" gradientTransform="matrix(0.762485, 0, 0, 0.762314, 2.794798, 37.499999)" y1="273.05899" x2="264.799991" gradientUnits="userSpaceOnUse" y2="273.05899" id="id4"><stop stop-opacity="1" stop-color="rgb(31.399536%, 68.598938%, 100%)" offset="0"/><stop stop-opacity="1" stop-color="rgb(31.257629%, 68.615723%, 100%)" offset="0.0625"/><stop stop-opacity="1" stop-color="rgb(30.973816%, 68.649292%, 100%)" offset="0.125"/><stop stop-opacity="1" stop-color="rgb(30.691528%, 68.684387%, 100%)" offset="0.1875"/><stop stop-opacity="1" stop-color="rgb(30.407715%, 68.717957%, 100%)" offset="0.25"/><stop stop-opacity="1" stop-color="rgb(30.125427%, 68.751526%, 100%)" offset="0.3125"/><stop stop-opacity="1" stop-color="rgb(29.841614%, 68.785095%, 100%)" offset="0.375"/><stop stop-opacity="1" stop-color="rgb(29.559326%, 68.818665%, 100%)" offset="0.4375"/><stop stop-opacity="1" stop-color="rgb(29.275513%, 68.852234%, 100%)" offset="0.5"/><stop stop-opacity="1" stop-color="rgb(28.993225%, 68.885803%, 100%)" offset="0.5625"/><stop stop-opacity="1" stop-color="rgb(28.709412%, 68.920898%, 100%)" offset="0.625"/><stop stop-opacity="1" stop-color="rgb(28.427124%, 68.954468%, 100%)" offset="0.6875"/><stop stop-opacity="1" stop-color="rgb(28.143311%, 68.988037%, 100%)" offset="0.75"/><stop stop-opacity="1" stop-color="rgb(27.861023%, 69.021606%, 100%)" offset="0.8125"/><stop stop-opacity="1" stop-color="rgb(27.577209%, 69.055176%, 100%)" offset="0.875"/><stop stop-opacity="1" stop-color="rgb(27.294922%, 69.088745%, 100%)" offset="0.9375"/><stop stop-opacity="1" stop-color="rgb(27.011108%, 69.122314%, 100%)" offset="1"/></linearGradient><clipPath id="id5"><path d="M 271 40 L 278 40 L 278 168 L 271 168 Z M 271 40 " clip-rule="nonzero"/></clipPath><clipPath id="id6"><path d="M 276.296875 167.246094 L 272.789062 167.246094 C 272.332031 167.246094 271.953125 166.863281 271.953125 166.40625 L 271.953125 41.617188 C 271.953125 41.160156 272.332031 40.777344 272.789062 40.777344 L 276.296875 40.777344 C 276.753906 40.777344 277.136719 41.160156 277.136719 41.617188 L 277.136719 166.40625 C 277.136719 166.863281 276.753906 167.246094 276.296875 167.246094 Z M 276.296875 167.246094 " clip-rule="nonzero"/></clipPath><linearGradient x1="356.401" gradientTransform="matrix(0.762485, 0, 0, 0.762314, 2.794798, 37.499999)" y1="170.200001" x2="356.401" gradientUnits="userSpaceOnUse" y2="4.299998" id="id7"><stop stop-opacity="1" stop-color="rgb(100%, 100%, 100%)" offset="0"/><stop stop-opacity="1" stop-color="rgb(99.809265%, 99.809265%, 99.809265%)" offset="0.015625"/><stop stop-opacity="1" stop-color="rgb(99.427795%, 99.427795%, 99.427795%)" offset="0.03125"/><stop stop-opacity="1" stop-color="rgb(99.046326%, 99.046326%, 99.046326%)" offset="0.046875"/><stop stop-opacity="1" stop-color="rgb(98.66333%, 98.66333%, 98.66333%)" offset="0.0625"/><stop stop-opacity="1" stop-color="rgb(98.28186%, 98.28186%, 98.28186%)" offset="0.078125"/><stop stop-opacity="1" stop-color="rgb(97.900391%, 97.900391%, 97.900391%)" offset="0.09375"/><stop stop-opacity="1" stop-color="rgb(97.517395%, 97.517395%, 97.517395%)" offset="0.109375"/><stop stop-opacity="1" stop-color="rgb(97.135925%, 97.135925%, 97.135925%)" offset="0.125"/><stop stop-opacity="1" stop-color="rgb(96.75293%, 96.75293%, 96.75293%)" offset="0.140625"/><stop stop-opacity="1" stop-color="rgb(96.37146%, 96.37146%, 96.37146%)" offset="0.15625"/><stop stop-opacity="1" stop-color="rgb(95.98999%, 95.98999%, 95.98999%)" offset="0.171875"/><stop stop-opacity="1" stop-color="rgb(95.606995%, 95.606995%, 95.606995%)" offset="0.1875"/><stop stop-opacity="1" stop-color="rgb(95.225525%, 95.225525%, 95.225525%)" offset="0.203125"/><stop stop-opacity="1" stop-color="rgb(94.842529%, 94.842529%, 94.842529%)" offset="0.21875"/><stop stop-opacity="1" stop-color="rgb(94.46106%, 94.46106%, 94.46106%)" offset="0.234375"/><stop stop-opacity="1" stop-color="rgb(94.078064%, 94.078064%, 94.078064%)" offset="0.25"/><stop stop-opacity="1" stop-color="rgb(93.696594%, 93.696594%, 93.696594%)" offset="0.265625"/><stop stop-opacity="1" stop-color="rgb(93.315125%, 93.315125%, 93.315125%)" offset="0.28125"/><stop stop-opacity="1" stop-color="rgb(92.932129%, 92.932129%, 92.932129%)" offset="0.296875"/><stop stop-opacity="1" stop-color="rgb(92.550659%, 92.550659%, 92.550659%)" offset="0.3125"/><stop stop-opacity="1" stop-color="rgb(92.167664%, 92.167664%, 92.167664%)" offset="0.328125"/><stop stop-opacity="1" stop-color="rgb(91.786194%, 91.786194%, 91.786194%)" offset="0.34375"/><stop stop-opacity="1" stop-color="rgb(91.404724%, 91.404724%, 91.404724%)" offset="0.359375"/><stop stop-opacity="1" stop-color="rgb(91.021729%, 91.021729%, 91.021729%)" offset="0.375"/><stop stop-opacity="1" stop-color="rgb(90.640259%, 90.640259%, 90.640259%)" offset="0.390625"/><stop stop-opacity="1" stop-color="rgb(90.257263%, 90.257263%, 90.257263%)" offset="0.40625"/><stop stop-opacity="1" stop-color="rgb(89.875793%, 89.875793%, 89.875793%)" offset="0.421875"/><stop stop-opacity="1" stop-color="rgb(89.492798%, 89.492798%, 89.492798%)" offset="0.4375"/><stop stop-opacity="1" stop-color="rgb(89.141846%, 89.14032%, 89.141846%)" offset="0.453125"/><stop stop-opacity="1" stop-color="rgb(88.937378%, 88.928223%, 88.937378%)" offset="0.46875"/><stop stop-opacity="1" stop-color="rgb(88.804626%, 88.780212%, 88.804626%)" offset="0.5"/><stop stop-opacity="1" stop-color="rgb(88.627625%, 88.580322%, 88.627625%)" offset="0.53125"/><stop stop-opacity="1" stop-color="rgb(88.452148%, 88.381958%, 88.452148%)" offset="0.5625"/><stop stop-opacity="1" stop-color="rgb(88.275146%, 88.182068%, 88.275146%)" offset="0.59375"/><stop stop-opacity="1" stop-color="rgb(88.09967%, 87.983704%, 88.09967%)" offset="0.625"/><stop stop-opacity="1" stop-color="rgb(87.924194%, 87.785339%, 87.924194%)" offset="0.65625"/><stop stop-opacity="1" stop-color="rgb(87.747192%, 87.585449%, 87.747192%)" offset="0.6875"/><stop stop-opacity="1" stop-color="rgb(87.571716%, 87.387085%, 87.571716%)" offset="0.71875"/><stop stop-opacity="1" stop-color="rgb(87.394714%, 87.188721%, 87.394714%)" offset="0.75"/><stop stop-opacity="1" stop-color="rgb(87.219238%, 86.988831%, 87.219238%)" offset="0.78125"/><stop stop-opacity="1" stop-color="rgb(87.042236%, 86.790466%, 87.042236%)" offset="0.8125"/><stop stop-opacity="1" stop-color="rgb(86.86676%, 86.590576%, 86.86676%)" offset="0.84375"/><stop stop-opacity="1" stop-color="rgb(86.689758%, 86.392212%, 86.689758%)" offset="0.875"/><stop stop-opacity="1" stop-color="rgb(86.514282%, 86.193848%, 86.514282%)" offset="0.90625"/><stop stop-opacity="1" stop-color="rgb(86.33728%, 85.993958%, 86.33728%)" offset="0.9375"/><stop stop-opacity="1" stop-color="rgb(86.161804%, 85.795593%, 86.161804%)" offset="0.96875"/><stop stop-opacity="1" stop-color="rgb(85.986328%, 85.597229%, 85.986328%)" offset="1"/></linearGradient><clipPath id="id8"><path d="M 246 37.5 L 303 37.5 L 303 94 L 246 94 Z M 246 37.5 " clip-rule="nonzero"/></clipPath><clipPath id="id9"><path d="M 302.375 65.324219 C 302.375 66.234375 302.332031 67.144531 302.242188 68.050781 C 302.152344 68.957031 302.019531 69.859375 301.839844 70.753906 C 301.664062 71.648438 301.441406 72.53125 301.175781 73.402344 C 300.910156 74.273438 300.605469 75.128906 300.257812 75.972656 C 299.90625 76.8125 299.519531 77.636719 299.089844 78.441406 C 298.660156 79.246094 298.191406 80.023438 297.683594 80.78125 C 297.179688 81.539062 296.636719 82.273438 296.058594 82.976562 C 295.480469 83.679688 294.867188 84.355469 294.222656 85 C 293.578125 85.644531 292.90625 86.253906 292.199219 86.832031 C 291.496094 87.410156 290.765625 87.953125 290.007812 88.460938 C 289.25 88.964844 288.46875 89.433594 287.664062 89.863281 C 286.859375 90.292969 286.035156 90.683594 285.195312 91.03125 C 284.351562 91.378906 283.496094 91.6875 282.625 91.949219 C 281.75 92.214844 280.867188 92.4375 279.972656 92.613281 C 279.078125 92.792969 278.179688 92.925781 277.273438 93.015625 C 276.363281 93.105469 275.457031 93.148438 274.542969 93.148438 C 273.632812 93.148438 272.722656 93.105469 271.816406 93.015625 C 270.910156 92.925781 270.007812 92.792969 269.113281 92.613281 C 268.222656 92.4375 267.335938 92.214844 266.464844 91.949219 C 265.59375 91.6875 264.734375 91.378906 263.894531 91.03125 C 263.050781 90.683594 262.230469 90.292969 261.425781 89.863281 C 260.621094 89.433594 259.839844 88.964844 259.082031 88.460938 C 258.324219 87.953125 257.59375 87.410156 256.890625 86.832031 C 256.183594 86.253906 255.507812 85.644531 254.863281 85 C 254.21875 84.355469 253.609375 83.679688 253.03125 82.976562 C 252.453125 82.273438 251.910156 81.539062 251.402344 80.78125 C 250.898438 80.023438 250.429688 79.246094 250 78.441406 C 249.570312 77.636719 249.179688 76.8125 248.832031 75.972656 C 248.484375 75.128906 248.175781 74.273438 247.910156 73.402344 C 247.648438 72.53125 247.425781 71.648438 247.25 70.753906 C 247.070312 69.859375 246.9375 68.957031 246.847656 68.050781 C 246.757812 67.144531 246.714844 66.234375 246.714844 65.324219 C 246.714844 64.414062 246.757812 63.503906 246.847656 62.597656 C 246.9375 61.691406 247.070312 60.789062 247.25 59.894531 C 247.425781 59.003906 247.648438 58.121094 247.910156 57.246094 C 248.175781 56.375 248.484375 55.519531 248.832031 54.675781 C 249.179688 53.835938 249.570312 53.011719 250 52.207031 C 250.429688 51.40625 250.898438 50.625 251.402344 49.867188 C 251.910156 49.109375 252.453125 48.378906 253.03125 47.671875 C 253.609375 46.96875 254.21875 46.292969 254.863281 45.648438 C 255.507812 45.003906 256.183594 44.394531 256.890625 43.816406 C 257.59375 43.238281 258.324219 42.695312 259.082031 42.1875 C 259.839844 41.683594 260.621094 41.214844 261.425781 40.785156 C 262.230469 40.355469 263.050781 39.964844 263.894531 39.617188 C 264.734375 39.269531 265.59375 38.960938 266.464844 38.699219 C 267.335938 38.433594 268.222656 38.210938 269.113281 38.035156 C 270.007812 37.855469 270.910156 37.722656 271.816406 37.632812 C 272.722656 37.542969 273.632812 37.5 274.542969 37.5 C 275.457031 37.5 276.363281 37.542969 277.273438 37.632812 C 278.179688 37.722656 279.078125 37.855469 279.972656 38.035156 C 280.867188 38.210938 281.75 38.433594 282.625 38.699219 C 283.496094 38.960938 284.351562 39.269531 285.195312 39.617188 C 286.035156 39.964844 286.859375 40.355469 287.664062 40.785156 C 288.46875 41.214844 289.25 41.683594 290.007812 42.1875 C 290.765625 42.695312 291.496094 43.238281 292.199219 43.816406 C 292.90625 44.394531 293.578125 45.003906 294.222656 45.648438 C 294.867188 46.292969 295.480469 46.96875 296.058594 47.671875 C 296.636719 48.378906 297.179688 49.109375 297.683594 49.867188 C 298.191406 50.625 298.660156 51.40625 299.089844 52.207031 C 299.519531 53.011719 299.90625 53.835938 300.257812 54.675781 C 300.605469 55.519531 300.910156 56.375 301.175781 57.246094 C 301.441406 58.121094 301.664062 59.003906 301.839844 59.894531 C 302.019531 60.789062 302.152344 61.691406 302.242188 62.597656 C 302.332031 63.503906 302.375 64.414062 302.375 65.324219 Z M 302.375 65.324219 " clip-rule="nonzero"/></clipPath><linearGradient x1="319.899991" gradientTransform="matrix(0.762485, 0, 0, 0.762314, 2.794798, 37.499999)" y1="36.450001" x2="392.899991" gradientUnits="userSpaceOnUse" y2="36.450001" id="id10"><stop stop-opacity="1" stop-color="rgb(93.699646%, 0%, 22.399902%)" offset="0"/><stop stop-opacity="1" stop-color="rgb(93.745422%, 0.184631%, 22.44873%)" offset="0.015625"/><stop stop-opacity="1" stop-color="rgb(93.841553%, 0.561523%, 22.549438%)" offset="0.03125"/><stop stop-opacity="1" stop-color="rgb(93.940735%, 0.947571%, 22.653198%)" offset="0.046875"/><stop stop-opacity="1" stop-color="rgb(94.039917%, 1.333618%, 22.755432%)" offset="0.0625"/><stop stop-opacity="1" stop-color="rgb(94.137573%, 1.721191%, 22.859192%)" offset="0.078125"/><stop stop-opacity="1" stop-color="rgb(94.236755%, 2.107239%, 22.962952%)" offset="0.09375"/><stop stop-opacity="1" stop-color="rgb(94.334412%, 2.493286%, 23.065186%)" offset="0.109375"/><stop stop-opacity="1" stop-color="rgb(94.433594%, 2.880859%, 23.168945%)" offset="0.125"/><stop stop-opacity="1" stop-color="rgb(94.532776%, 3.266907%, 23.272705%)" offset="0.140625"/><stop stop-opacity="1" stop-color="rgb(94.630432%, 3.652954%, 23.374939%)" offset="0.15625"/><stop stop-opacity="1" stop-color="rgb(94.729614%, 4.039001%, 23.478699%)" offset="0.171875"/><stop stop-opacity="1" stop-color="rgb(94.827271%, 4.426575%, 23.582458%)" offset="0.1875"/><stop stop-opacity="1" stop-color="rgb(94.926453%, 4.812622%, 23.684692%)" offset="0.203125"/><stop stop-opacity="1" stop-color="rgb(95.025635%, 5.198669%, 23.788452%)" offset="0.21875"/><stop stop-opacity="1" stop-color="rgb(95.123291%, 5.584717%, 23.892212%)" offset="0.234375"/><stop stop-opacity="1" stop-color="rgb(95.222473%, 5.97229%, 23.994446%)" offset="0.25"/><stop stop-opacity="1" stop-color="rgb(95.320129%, 6.358337%, 24.098206%)" offset="0.265625"/><stop stop-opacity="1" stop-color="rgb(95.419312%, 6.744385%, 24.201965%)" offset="0.28125"/><stop stop-opacity="1" stop-color="rgb(95.518494%, 7.131958%, 24.304199%)" offset="0.296875"/><stop stop-opacity="1" stop-color="rgb(95.61615%, 7.518005%, 24.407959%)" offset="0.3125"/><stop stop-opacity="1" stop-color="rgb(95.715332%, 7.904053%, 24.511719%)" offset="0.328125"/><stop stop-opacity="1" stop-color="rgb(95.812988%, 8.2901%, 24.613953%)" offset="0.34375"/><stop stop-opacity="1" stop-color="rgb(95.91217%, 8.677673%, 24.717712%)" offset="0.359375"/><stop stop-opacity="1" stop-color="rgb(96.011353%, 9.063721%, 24.821472%)" offset="0.375"/><stop stop-opacity="1" stop-color="rgb(96.109009%, 9.449768%, 24.923706%)" offset="0.390625"/><stop stop-opacity="1" stop-color="rgb(96.208191%, 9.835815%, 25.027466%)" offset="0.40625"/><stop stop-opacity="1" stop-color="rgb(96.305847%, 10.223389%, 25.131226%)" offset="0.421875"/><stop stop-opacity="1" stop-color="rgb(96.405029%, 10.609436%, 25.234985%)" offset="0.4375"/><stop stop-opacity="1" stop-color="rgb(96.504211%, 10.995483%, 25.337219%)" offset="0.453125"/><stop stop-opacity="1" stop-color="rgb(96.601868%, 11.383057%, 25.440979%)" offset="0.46875"/><stop stop-opacity="1" stop-color="rgb(96.70105%, 11.769104%, 25.544739%)" offset="0.484375"/><stop stop-opacity="1" stop-color="rgb(96.798706%, 12.155151%, 25.646973%)" offset="0.5"/><stop stop-opacity="1" stop-color="rgb(96.897888%, 12.541199%, 25.750732%)" offset="0.515625"/><stop stop-opacity="1" stop-color="rgb(96.99707%, 12.928772%, 25.854492%)" offset="0.53125"/><stop stop-opacity="1" stop-color="rgb(97.094727%, 13.314819%, 25.956726%)" offset="0.546875"/><stop stop-opacity="1" stop-color="rgb(97.193909%, 13.700867%, 26.060486%)" offset="0.5625"/><stop stop-opacity="1" stop-color="rgb(97.291565%, 14.086914%, 26.164246%)" offset="0.578125"/><stop stop-opacity="1" stop-color="rgb(97.390747%, 14.474487%, 26.266479%)" offset="0.59375"/><stop stop-opacity="1" stop-color="rgb(97.489929%, 14.860535%, 26.370239%)" offset="0.609375"/><stop stop-opacity="1" stop-color="rgb(97.587585%, 15.246582%, 26.473999%)" offset="0.625"/><stop stop-opacity="1" stop-color="rgb(97.686768%, 15.634155%, 26.576233%)" offset="0.640625"/><stop stop-opacity="1" stop-color="rgb(97.784424%, 16.020203%, 26.679993%)" offset="0.65625"/><stop stop-opacity="1" stop-color="rgb(97.883606%, 16.40625%, 26.783752%)" offset="0.671875"/><stop stop-opacity="1" stop-color="rgb(97.982788%, 16.792297%, 26.885986%)" offset="0.6875"/><stop stop-opacity="1" stop-color="rgb(98.080444%, 17.179871%, 26.989746%)" offset="0.703125"/><stop stop-opacity="1" stop-color="rgb(98.179626%, 17.565918%, 27.093506%)" offset="0.71875"/><stop stop-opacity="1" stop-color="rgb(98.277283%, 17.951965%, 27.19574%)" offset="0.734375"/><stop stop-opacity="1" stop-color="rgb(98.376465%, 18.338013%, 27.2995%)" offset="0.75"/><stop stop-opacity="1" stop-color="rgb(98.475647%, 18.725586%, 27.403259%)" offset="0.765625"/><stop stop-opacity="1" stop-color="rgb(98.573303%, 19.111633%, 27.505493%)" offset="0.78125"/><stop stop-opacity="1" stop-color="rgb(98.672485%, 19.497681%, 27.609253%)" offset="0.796875"/><stop stop-opacity="1" stop-color="rgb(98.770142%, 19.885254%, 27.713013%)" offset="0.8125"/><stop stop-opacity="1" stop-color="rgb(98.869324%, 20.271301%, 27.815247%)" offset="0.828125"/><stop stop-opacity="1" stop-color="rgb(98.968506%, 20.657349%, 27.919006%)" offset="0.84375"/><stop stop-opacity="1" stop-color="rgb(99.066162%, 21.043396%, 28.022766%)" offset="0.859375"/><stop stop-opacity="1" stop-color="rgb(99.165344%, 21.430969%, 28.125%)" offset="0.875"/><stop stop-opacity="1" stop-color="rgb(99.263%, 21.817017%, 28.22876%)" offset="0.890625"/><stop stop-opacity="1" stop-color="rgb(99.362183%, 22.203064%, 28.33252%)" offset="0.90625"/><stop stop-opacity="1" stop-color="rgb(99.461365%, 22.589111%, 28.434753%)" offset="0.921875"/><stop stop-opacity="1" stop-color="rgb(99.559021%, 22.976685%, 28.538513%)" offset="0.9375"/><stop stop-opacity="1" stop-color="rgb(99.658203%, 23.362732%, 28.642273%)" offset="0.953125"/><stop stop-opacity="1" stop-color="rgb(99.755859%, 23.748779%, 28.744507%)" offset="0.96875"/><stop stop-opacity="1" stop-color="rgb(99.855042%, 24.134827%, 28.848267%)" offset="0.984375"/><stop stop-opacity="1" stop-color="rgb(99.952698%, 24.513245%, 28.948975%)" offset="1"/></linearGradient><clipPath id="id11"><path d="M 252 44 L 265 44 L 265 56 L 252 56 Z M 252 44 " clip-rule="nonzero"/></clipPath><clipPath id="id12"><path d="M 256.625 47.945312 C 253.652344 50.917969 252.128906 54.195312 253.269531 55.339844 C 254.414062 56.480469 257.695312 55.035156 260.667969 52.058594 C 263.640625 49.085938 265.164062 45.808594 264.023438 44.664062 C 262.953125 43.597656 259.601562 45.046875 256.625 47.945312 Z M 256.625 47.945312 " clip-rule="nonzero"/></clipPath><linearGradient x1="412.905499" gradientTransform="matrix(0.658634, 0.667177, -0.601219, 0.593233, -14.067552, -237.565114)" y1="9.409" x2="432.455372" gradientUnits="userSpaceOnUse" y2="9.409" id="id13"><stop stop-opacity="1" stop-color="rgb(100%, 100%, 100%)" offset="0"/><stop stop-opacity="1" stop-color="rgb(100%, 100%, 100%)" offset="0.25"/><stop stop-opacity="1" stop-color="rgb(100%, 100%, 100%)" offset="0.3125"/><stop stop-opacity="1" stop-color="rgb(99.963379%, 99.963379%, 99.963379%)" offset="0.34375"/><stop stop-opacity="1" stop-color="rgb(99.752808%, 99.746704%, 99.752808%)" offset="0.351562"/><stop stop-opacity="1" stop-color="rgb(99.403381%, 99.386597%, 99.403381%)" offset="0.359375"/><stop stop-opacity="1" stop-color="rgb(99.052429%, 99.026489%, 99.052429%)" offset="0.367188"/><stop stop-opacity="1" stop-color="rgb(98.703003%, 98.666382%, 98.703003%)" offset="0.375"/><stop stop-opacity="1" stop-color="rgb(98.353577%, 98.306274%, 98.353577%)" offset="0.382813"/><stop stop-opacity="1" stop-color="rgb(98.002625%, 97.946167%, 98.002625%)" offset="0.390625"/><stop stop-opacity="1" stop-color="rgb(97.653198%, 97.58606%, 97.653198%)" offset="0.398438"/><stop stop-opacity="1" stop-color="rgb(97.302246%, 97.227478%, 97.302246%)" offset="0.40625"/><stop stop-opacity="1" stop-color="rgb(96.95282%, 96.867371%, 96.95282%)" offset="0.414062"/><stop stop-opacity="1" stop-color="rgb(96.603394%, 96.507263%, 96.603394%)" offset="0.421875"/><stop stop-opacity="1" stop-color="rgb(96.252441%, 96.147156%, 96.252441%)" offset="0.429688"/><stop stop-opacity="1" stop-color="rgb(95.903015%, 95.787048%, 95.903015%)" offset="0.4375"/><stop stop-opacity="1" stop-color="rgb(95.552063%, 95.426941%, 95.552063%)" offset="0.445312"/><stop stop-opacity="1" stop-color="rgb(95.202637%, 95.066833%, 95.202637%)" offset="0.453125"/><stop stop-opacity="1" stop-color="rgb(94.85321%, 94.706726%, 94.85321%)" offset="0.460938"/><stop stop-opacity="1" stop-color="rgb(94.502258%, 94.346619%, 94.502258%)" offset="0.46875"/><stop stop-opacity="1" stop-color="rgb(94.152832%, 93.986511%, 94.152832%)" offset="0.476562"/><stop stop-opacity="1" stop-color="rgb(93.80188%, 93.626404%, 93.80188%)" offset="0.484375"/><stop stop-opacity="1" stop-color="rgb(93.452454%, 93.266296%, 93.452454%)" offset="0.492188"/><stop stop-opacity="1" stop-color="rgb(93.101501%, 92.906189%, 93.101501%)" offset="0.5"/><stop stop-opacity="1" stop-color="rgb(92.752075%, 92.547607%, 92.752075%)" offset="0.507812"/><stop stop-opacity="1" stop-color="rgb(92.402649%, 92.1875%, 92.402649%)" offset="0.515625"/><stop stop-opacity="1" stop-color="rgb(92.051697%, 91.827393%, 92.051697%)" offset="0.523438"/><stop stop-opacity="1" stop-color="rgb(91.702271%, 91.467285%, 91.702271%)" offset="0.53125"/><stop stop-opacity="1" stop-color="rgb(91.351318%, 91.107178%, 91.351318%)" offset="0.539062"/><stop stop-opacity="1" stop-color="rgb(91.001892%, 90.74707%, 91.001892%)" offset="0.546875"/><stop stop-opacity="1" stop-color="rgb(90.652466%, 90.386963%, 90.652466%)" offset="0.554688"/><stop stop-opacity="1" stop-color="rgb(90.301514%, 90.026855%, 90.301514%)" offset="0.5625"/><stop stop-opacity="1" stop-color="rgb(89.952087%, 89.666748%, 89.952087%)" offset="0.570312"/><stop stop-opacity="1" stop-color="rgb(89.601135%, 89.306641%, 89.601135%)" offset="0.578125"/><stop stop-opacity="1" stop-color="rgb(89.251709%, 88.946533%, 89.251709%)" offset="0.585938"/><stop stop-opacity="1" stop-color="rgb(88.902283%, 88.586426%, 88.902283%)" offset="0.59375"/><stop stop-opacity="1" stop-color="rgb(88.551331%, 88.227844%, 88.551331%)" offset="0.601562"/><stop stop-opacity="1" stop-color="rgb(88.201904%, 87.867737%, 88.201904%)" offset="0.609375"/><stop stop-opacity="1" stop-color="rgb(87.850952%, 87.507629%, 87.850952%)" offset="0.617188"/><stop stop-opacity="1" stop-color="rgb(87.501526%, 87.147522%, 87.501526%)" offset="0.625"/><stop stop-opacity="1" stop-color="rgb(87.150574%, 86.787415%, 87.150574%)" offset="0.632813"/><stop stop-opacity="1" stop-color="rgb(86.801147%, 86.427307%, 86.801147%)" offset="0.640625"/><stop stop-opacity="1" stop-color="rgb(86.451721%, 86.0672%, 86.451721%)" offset="0.648438"/><stop stop-opacity="1" stop-color="rgb(86.100769%, 85.707092%, 86.100769%)" offset="0.65625"/><stop stop-opacity="1" stop-color="rgb(85.913086%, 85.513306%, 85.913086%)" offset="0.6875"/><stop stop-opacity="1" stop-color="rgb(85.899353%, 85.499573%, 85.899353%)" offset="0.75"/><stop stop-opacity="1" stop-color="rgb(85.899353%, 85.499573%, 85.899353%)" offset="1"/></linearGradient><clipPath id="id14"><path d="M 148 130 L 204 130 L 204 163 L 148 163 Z M 148 130 " clip-rule="nonzero"/></clipPath><clipPath id="id15"><path d="M 203.632812 130.65625 L 148.964844 162.75 Z M 203.632812 130.65625 " clip-rule="nonzero"/></clipPath><linearGradient x1="191.700001" gradientTransform="matrix(0.762485, 0, 0, 0.762314, 2.794798, 37.499999)" y1="143.218002" x2="263.399991" gradientUnits="userSpaceOnUse" y2="143.218002" id="id16"><stop stop-opacity="1" stop-color="rgb(29.985046%, 68.768311%, 100%)" offset="0"/><stop stop-opacity="1" stop-color="rgb(29.794312%, 68.791199%, 100%)" offset="0.125"/><stop stop-opacity="1" stop-color="rgb(29.411316%, 68.836975%, 100%)" offset="0.25"/><stop stop-opacity="1" stop-color="rgb(29.029846%, 68.882751%, 100%)" offset="0.375"/><stop stop-opacity="1" stop-color="rgb(28.648376%, 68.927002%, 100%)" offset="0.5"/><stop stop-opacity="1" stop-color="rgb(28.266907%, 68.972778%, 100%)" offset="0.625"/><stop stop-opacity="1" stop-color="rgb(27.883911%, 69.018555%, 100%)" offset="0.75"/><stop stop-opacity="1" stop-color="rgb(27.502441%, 69.064331%, 100%)" offset="0.875"/><stop stop-opacity="1" stop-color="rgb(27.120972%, 69.110107%, 100%)" offset="1"/></linearGradient></defs><g clip-path="url(#id1)"><path fill="#bcbec0" d="M 85.21875 115.484375 L 2.792969 287.539062 L 124.335938 330 L 247.550781 288.378906 L 372.21875 314.371094 L 299.707031 128.519531 L 223 112.054688 L 152.011719 126.308594 Z M 85.21875 115.484375 " fill-opacity="1" fill-rule="nonzero"/></g><path fill="#00d06a" d="M 153.003906 140.414062 L 93.683594 128.824219 L 54.871094 218.015625 L 203.632812 130.65625 Z M 153.003906 140.414062 " fill-opacity="1" fill-rule="nonzero"/><path fill="#e2e5ef" d="M 291.929688 139.191406 L 225.820312 126.308594 L 216.902344 131.722656 L 258.609375 185.617188 L 302.070312 166.941406 Z M 291.929688 139.191406 " fill-opacity="1" fill-rule="nonzero"/><path fill="#e2e5ef" d="M 346.597656 289.0625 L 305.425781 176.164062 L 264.785156 193.621094 L 337.066406 287.003906 L 336.839844 287.15625 Z M 346.597656 289.0625 " fill-opacity="1" fill-rule="nonzero"/><path fill="#e2e5ef" d="M 235.734375 206.125 L 243.585938 268.863281 L 322.582031 284.335938 L 230.703125 165.492188 L 234.515625 195.984375 Z M 235.734375 206.125 " fill-opacity="1" fill-rule="nonzero"/><path fill="#54c0eb" d="M 177.328125 220.53125 L 146.90625 174.183594 L 146.980469 173.800781 L 48.238281 233.261719 L 30.625 273.742188 L 123.648438 303.089844 L 214.613281 277.171875 L 183.808594 230.367188 " fill-opacity="1" fill-rule="nonzero"/><path fill="#dbdbdb" d="M 214.613281 277.171875 L 243.585938 268.863281 Z M 214.613281 277.171875 " fill-opacity="1" fill-rule="nonzero"/><g clip-path="url(#id2)"><g clip-path="url(#id3)"><path fill="url(#id4)" d="M 123.648438 188.210938 L 123.648438 303.089844 L 204.699219 303.089844 L 204.699219 188.210938 Z M 123.648438 188.210938 " fill-rule="nonzero"/></g></g><path fill="#e8ebf5" d="M 243.585938 268.863281 L 225.820312 126.308594 L 203.632812 130.65625 L 148.964844 162.75 L 146.90625 174.183594 L 214.613281 277.171875 Z M 243.585938 268.863281 " fill-opacity="1" fill-rule="nonzero"/><path fill="#c6c6c6" d="M 225.820312 126.308594 L 203.632812 130.65625 L 148.964844 162.75 L 146.90625 174.183594 L 177.328125 220.53125 L 234.515625 195.984375 Z M 225.820312 126.308594 " fill-opacity="1" fill-rule="nonzero"/><path fill="#079b4d" d="M 153.003906 140.414062 L 148.964844 162.75 L 203.632812 130.65625 Z M 153.003906 140.414062 " fill-opacity="1" fill-rule="nonzero"/><path fill="#e8ebf5" d="M 144.921875 171.132812 L 136.6875 176.546875 L 144.386719 188.210938 L 146.90625 174.183594 Z M 144.921875 171.132812 " fill-opacity="1" fill-rule="nonzero"/><path fill="#ffffff" d="M 146.90625 174.183594 L 144.386719 188.210938 L 204.699219 279.992188 L 214.613281 277.171875 Z M 146.90625 174.183594 " fill-opacity="1" fill-rule="nonzero"/><path fill="#000000" d="M 285.996094 155.316406 C 286.160156 155.523438 286.28125 155.761719 286.359375 156.035156 C 286.433594 156.304688 286.464844 156.601562 286.453125 156.925781 C 286.4375 157.25 286.378906 157.597656 286.273438 157.960938 C 286.167969 158.324219 286.019531 158.703125 285.828125 159.09375 C 285.636719 159.484375 285.40625 159.882812 285.132812 160.285156 C 284.863281 160.6875 284.558594 161.085938 284.21875 161.484375 C 283.878906 161.882812 283.511719 162.273438 283.117188 162.652344 C 282.722656 163.03125 282.308594 163.390625 281.871094 163.738281 C 281.4375 164.082031 280.988281 164.402344 280.527344 164.703125 C 280.070312 165 279.609375 165.269531 279.140625 165.507812 C 278.675781 165.746094 278.21875 165.953125 277.761719 166.121094 C 277.308594 166.292969 276.871094 166.429688 276.445312 166.523438 C 276.019531 166.621094 275.621094 166.679688 275.242188 166.699219 C 274.863281 166.71875 274.511719 166.695312 274.195312 166.636719 C 273.875 166.578125 273.59375 166.480469 273.34375 166.34375 C 273.097656 166.207031 272.894531 166.03125 272.726562 165.824219 C 272.5625 165.617188 272.441406 165.378906 272.367188 165.105469 C 272.289062 164.835938 272.257812 164.539062 272.273438 164.214844 C 272.289062 163.890625 272.347656 163.542969 272.453125 163.179688 C 272.558594 162.816406 272.707031 162.4375 272.898438 162.046875 C 273.089844 161.65625 273.320312 161.257812 273.589844 160.855469 C 273.859375 160.453125 274.164062 160.054688 274.503906 159.65625 C 274.84375 159.257812 275.210938 158.867188 275.605469 158.488281 C 276 158.109375 276.417969 157.75 276.851562 157.402344 C 277.289062 157.058594 277.734375 156.738281 278.195312 156.4375 C 278.652344 156.140625 279.117188 155.871094 279.582031 155.632812 C 280.046875 155.394531 280.507812 155.1875 280.960938 155.019531 C 281.414062 154.847656 281.855469 154.710938 282.277344 154.617188 C 282.703125 154.519531 283.105469 154.460938 283.484375 154.441406 C 283.863281 154.421875 284.210938 154.445312 284.53125 154.503906 C 284.847656 154.5625 285.132812 154.660156 285.378906 154.796875 C 285.625 154.933594 285.832031 155.109375 285.996094 155.316406 Z M 285.996094 155.316406 " fill-opacity="0.2588" fill-rule="nonzero"/><g clip-path="url(#id5)"><g clip-path="url(#id6)"><path fill="url(#id7)" d="M 271.953125 40.777344 L 271.953125 167.246094 L 277.136719 167.246094 L 277.136719 40.777344 Z M 271.953125 40.777344 " fill-rule="nonzero"/></g></g><g clip-path="url(#id8)"><g clip-path="url(#id9)"><path fill="url(#id10)" d="M 246.714844 37.5 L 246.714844 93.148438 L 302.375 93.148438 L 302.375 37.5 Z M 246.714844 37.5 " fill-rule="nonzero"/></g></g><path fill="#414042" d="M 288.726562 41.464844 C 291.242188 45.65625 292.691406 50.460938 292.691406 55.644531 C 292.691406 70.964844 280.261719 83.46875 264.859375 83.46875 C 259.675781 83.46875 254.796875 82.019531 250.679688 79.503906 C 255.558594 87.660156 264.402344 93.074219 274.542969 93.074219 C 289.871094 93.074219 302.375 80.648438 302.375 65.25 C 302.375 55.109375 296.886719 46.265625 288.726562 41.464844 Z M 288.726562 41.464844 " fill-opacity="0.4078" fill-rule="nonzero"/><g clip-path="url(#id11)"><g clip-path="url(#id12)"><path fill="url(#id13)" d="M 258.730469 37.082031 L 245.683594 49.957031 L 258.5625 63 L 271.609375 50.125 Z M 258.730469 37.082031 " fill-rule="nonzero"/></g></g><g clip-path="url(#id14)"><g clip-path="url(#id15)"><path fill="url(#id16)" d="M 148.964844 130.65625 L 148.964844 162.75 L 203.632812 162.75 L 203.632812 130.65625 Z M 148.964844 130.65625 " fill-rule="nonzero"/></g></g><path fill="#e5e5e5" d="M 216.902344 131.722656 L 208.4375 136.753906 L 230.703125 165.492188 L 228.335938 146.433594 Z M 216.902344 131.722656 " fill-opacity="1" fill-rule="nonzero"/><path fill="#ffffff" d="M 264.785156 193.621094 L 305.425781 176.164062 L 302.070312 166.941406 L 258.609375 185.617188 L 228.335938 146.433594 L 230.703125 165.492188 L 249.304688 189.582031 L 234.515625 195.984375 L 235.734375 206.125 L 255.480469 197.585938 L 322.582031 284.335938 L 336.839844 287.15625 L 337.066406 287.003906 Z M 264.785156 193.621094 " fill-opacity="1" fill-rule="nonzero"/><path fill="#ffb206" d="M 225.820312 126.308594 L 203.632812 130.65625 L 148.964844 162.75 L 146.675781 175.402344 L 226.125 128.75 Z M 225.820312 126.308594 " fill-opacity="1" fill-rule="nonzero"/><path fill="#fdc542" d="M 148.964844 162.75 L 54.871094 218.015625 L 48.238281 233.261719 L 146.675781 175.402344 Z M 148.964844 162.75 " fill-opacity="1" fill-rule="nonzero"/><path fill="#c6c6c6" d="M 182.816406 228.839844 L 214.613281 277.171875 L 243.585938 268.863281 L 235.734375 206.125 Z M 182.816406 228.839844 " fill-opacity="1" fill-rule="nonzero"/><path fill="#e5e5e5" d="M 234.515625 195.984375 L 177.328125 220.53125 L 182.816406 228.839844 L 235.734375 206.125 Z M 234.515625 195.984375 " fill-opacity="1" fill-rule="nonzero"/><path fill="#e2e5ef" d="M 235.734375 206.125 L 243.585938 268.863281 L 322.582031 284.335938 L 230.703125 165.492188 L 234.515625 195.984375 Z M 235.734375 206.125 " fill-opacity="1" fill-rule="nonzero"/><path fill="#dbdbdb" d="M 214.613281 277.171875 L 243.585938 268.863281 Z M 214.613281 277.171875 " fill-opacity="1" fill-rule="nonzero"/></svg>