<svg xmlns="http://www.w3.org/2000/svg" xmlns:xlink="http://www.w3.org/1999/xlink" width="500" zoomAndPan="magnify" viewBox="0 0 375 374.999991" height="500" preserveAspectRatio="xMidYMid meet" version="1.0"><defs><clipPath id="id1"><path d="M 43.699219 65 L 330.949219 65 L 330.949219 310 L 43.699219 310 Z M 43.699219 65 " clip-rule="nonzero"/></clipPath><clipPath id="id2"><path d="M 43.699219 52.847656 L 330.949219 52.847656 L 330.949219 322.097656 L 43.699219 322.097656 Z M 43.699219 52.847656 " clip-rule="nonzero"/></clipPath></defs><rect x="-37.5" width="450" fill="#ffffff" y="-37.499999" height="449.999989" fill-opacity="1"/><rect x="-37.5" width="450" fill="#ffffff" y="-37.499999" height="449.999989" fill-opacity="1"/><rect x="-37.5" width="450" fill="#ffffff" y="-37.499999" height="449.999989" fill-opacity="1"/><rect x="-37.5" width="450" fill="#ffffff" y="-37.499999" height="449.999989" fill-opacity="1"/><path fill="#00d8ff" d="M 212.976562 187.238281 C 212.976562 188.078125 212.933594 188.917969 212.851562 189.753906 C 212.769531 190.589844 212.644531 191.421875 212.480469 192.246094 C 212.320312 193.070312 212.113281 193.886719 211.871094 194.691406 C 211.625 195.496094 211.34375 196.289062 211.023438 197.0625 C 210.703125 197.839844 210.34375 198.601562 209.945312 199.34375 C 209.550781 200.082031 209.117188 200.804688 208.652344 201.503906 C 208.1875 202.203125 207.6875 202.878906 207.152344 203.527344 C 206.621094 204.175781 206.054688 204.800781 205.460938 205.394531 C 204.867188 205.988281 204.246094 206.554688 203.597656 207.085938 C 202.949219 207.621094 202.273438 208.121094 201.574219 208.589844 C 200.875 209.054688 200.15625 209.488281 199.417969 209.882812 C 198.675781 210.28125 197.917969 210.640625 197.140625 210.960938 C 196.363281 211.28125 195.574219 211.566406 194.769531 211.808594 C 193.964844 212.054688 193.152344 212.257812 192.328125 212.421875 C 191.503906 212.585938 190.675781 212.710938 189.839844 212.792969 C 189.003906 212.875 188.164062 212.914062 187.324219 212.914062 C 186.484375 212.914062 185.644531 212.875 184.808594 212.792969 C 183.972656 212.710938 183.144531 212.585938 182.320312 212.421875 C 181.496094 212.257812 180.683594 212.054688 179.878906 211.808594 C 179.074219 211.566406 178.285156 211.28125 177.507812 210.960938 C 176.730469 210.640625 175.972656 210.28125 175.234375 209.882812 C 174.492188 209.488281 173.773438 209.054688 173.074219 208.589844 C 172.375 208.121094 171.703125 207.621094 171.050781 207.085938 C 170.402344 206.554688 169.78125 205.988281 169.1875 205.394531 C 168.59375 204.800781 168.03125 204.175781 167.496094 203.527344 C 166.964844 202.878906 166.464844 202.203125 165.996094 201.503906 C 165.53125 200.804688 165.097656 200.082031 164.703125 199.34375 C 164.308594 198.601562 163.949219 197.839844 163.625 197.0625 C 163.304688 196.289062 163.023438 195.496094 162.777344 194.691406 C 162.535156 193.886719 162.332031 193.070312 162.167969 192.246094 C 162.003906 191.421875 161.878906 190.589844 161.796875 189.753906 C 161.714844 188.917969 161.675781 188.078125 161.675781 187.238281 C 161.675781 186.398438 161.714844 185.558594 161.796875 184.722656 C 161.878906 183.882812 162.003906 183.054688 162.167969 182.226562 C 162.332031 181.402344 162.535156 180.589844 162.777344 179.785156 C 163.023438 178.980469 163.304688 178.1875 163.625 177.410156 C 163.949219 176.632812 164.308594 175.875 164.703125 175.132812 C 165.097656 174.390625 165.53125 173.671875 165.996094 172.972656 C 166.464844 172.273438 166.964844 171.597656 167.496094 170.949219 C 168.03125 170.296875 168.59375 169.675781 169.1875 169.082031 C 169.78125 168.488281 170.402344 167.921875 171.050781 167.390625 C 171.703125 166.855469 172.375 166.355469 173.074219 165.886719 C 173.773438 165.421875 174.492188 164.988281 175.234375 164.59375 C 175.972656 164.195312 176.730469 163.835938 177.507812 163.515625 C 178.285156 163.191406 179.074219 162.910156 179.878906 162.664062 C 180.683594 162.421875 181.496094 162.21875 182.320312 162.054688 C 183.144531 161.890625 183.972656 161.765625 184.808594 161.683594 C 185.644531 161.601562 186.484375 161.558594 187.324219 161.558594 C 188.164062 161.558594 189.003906 161.601562 189.839844 161.683594 C 190.675781 161.765625 191.503906 161.890625 192.328125 162.054688 C 193.152344 162.21875 193.964844 162.421875 194.769531 162.664062 C 195.574219 162.910156 196.363281 163.191406 197.140625 163.515625 C 197.917969 163.835938 198.675781 164.195312 199.417969 164.59375 C 200.15625 164.988281 200.875 165.421875 201.574219 165.886719 C 202.273438 166.355469 202.949219 166.855469 203.597656 167.390625 C 204.246094 167.921875 204.867188 168.488281 205.460938 169.082031 C 206.054688 169.675781 206.621094 170.296875 207.152344 170.949219 C 207.6875 171.597656 208.1875 172.273438 208.652344 172.972656 C 209.117188 173.671875 209.550781 174.390625 209.945312 175.132812 C 210.34375 175.875 210.703125 176.632812 211.023438 177.410156 C 211.34375 178.1875 211.625 178.980469 211.871094 179.785156 C 212.113281 180.589844 212.320312 181.402344 212.480469 182.226562 C 212.644531 183.054688 212.769531 183.882812 212.851562 184.722656 C 212.933594 185.558594 212.976562 186.398438 212.976562 187.238281 Z M 212.976562 187.238281 " fill-opacity="1" fill-rule="nonzero"/><g clip-path="url(#id1)"><path stroke-linecap="butt" transform="matrix(0.511305, 0, 0, 0.511842, 49.512563, 65.608882)" fill="none" stroke-linejoin="miter" d="M 269.529222 135.63249 C 336.889021 135.63249 399.458688 145.29429 446.641871 161.534662 C 503.481715 181.110111 538.433635 210.767106 538.433635 237.630879 C 538.433635 265.61652 501.396059 297.135662 440.354345 317.35981 C 394.202531 332.646212 333.474047 340.629027 269.529222 340.629027 C 203.980047 340.629027 141.899325 333.134645 95.228007 317.191911 C 36.187911 297.005923 0.62481 265.089929 0.62481 237.630879 C 0.62481 210.988426 33.987659 181.552752 90.032968 162.015463 C 137.391865 145.500348 201.504764 135.63249 269.529222 135.63249 Z M 269.529222 135.63249 " stroke="#00d8ff" stroke-width="24" stroke-opacity="1" stroke-miterlimit="4"/></g><g clip-path="url(#id2)"><path stroke-linecap="butt" transform="matrix(0.511305, 0, 0, 0.511842, 49.512563, 65.608882)" fill="none" stroke-linejoin="miter" d="M 180.739885 186.917875 C 214.393046 128.573118 254.020502 79.203303 291.661619 46.440184 C 337.011258 6.976386 380.160645 -8.477915 403.431366 4.938708 C 427.679977 18.92008 436.473345 66.748281 423.493386 129.740776 C 413.699209 177.355288 390.260413 233.944742 358.318559 289.33601 C 325.574531 346.12389 288.07093 396.157667 250.941677 428.607884 C 203.964768 469.674351 158.538731 484.533375 134.763786 470.819114 C 111.684059 457.516967 102.852492 413.901494 113.930149 355.587264 C 123.281221 306.316662 146.758215 245.850277 180.724606 186.933139 Z M 180.739885 186.917875 " stroke="#00d8ff" stroke-width="24" stroke-opacity="1" stroke-miterlimit="4"/><path stroke-linecap="butt" transform="matrix(0.511305, 0, 0, 0.511842, 49.512563, 65.608882)" fill="none" stroke-linejoin="miter" d="M 180.816283 289.481013 C 147.079085 231.19731 124.098675 172.196222 114.510771 123.23089 C 102.967088 64.229802 111.126356 19.118506 134.374158 5.663724 C 158.599849 -8.363439 204.430794 7.90746 252.515468 50.59949 C 288.873105 82.881808 326.200992 131.435026 358.234522 186.772872 C 391.077867 243.499697 415.693187 300.982066 425.273451 349.352121 C 437.390117 410.566418 427.58066 457.333805 403.813354 471.086225 C 380.756546 484.441794 338.56977 470.307786 293.579199 431.591899 C 255.563734 398.882203 214.89727 348.337098 180.816283 289.473382 Z M 180.816283 289.481013 " stroke="#00d8ff" stroke-width="24" stroke-opacity="1" stroke-miterlimit="4"/></g></svg>