<?xml version="1.0" ?><!DOCTYPE svg  PUBLIC '-//W3C//DTD SVG 1.1//EN'  'http://www.w3.org/Graphics/SVG/1.1/DTD/svg11.dtd'><svg height="100%" style="fill-rule:evenodd;clip-rule:evenodd;stroke-linejoin:round;stroke-miterlimit:2;" version="1.1" viewBox="0 0 32 32" width="100%" xml:space="preserve" xmlns="http://www.w3.org/2000/svg" xmlns:serif="http://www.serif.com/" xmlns:xlink="http://www.w3.org/1999/xlink"><path d="M12.332,12.121l2.241,-6.899l0,-0c0.201,-0.618 0.777,-1.037 1.427,-1.037c0.65,0 1.226,0.419 1.427,1.037l2.241,6.899l7.254,-0c0.65,-0 1.226,0.418 1.427,1.036c0.201,0.618 -0.019,1.295 -0.545,1.677l-5.869,4.264l2.242,6.899c0.201,0.618 -0.019,1.295 -0.545,1.677c-0.526,0.382 -1.238,0.382 -1.763,0l-5.869,-4.264l-5.869,4.264c-0.525,0.382 -1.237,0.382 -1.763,0c-0.526,-0.382 -0.746,-1.059 -0.545,-1.677l2.242,-6.899l-5.869,-4.264c-0.526,-0.382 -0.746,-1.059 -0.545,-1.677c0.201,-0.618 0.777,-1.036 1.427,-1.036l7.254,-0Zm3.192,-6.59c0.067,-0.206 0.259,-0.346 0.476,-0.346c0.217,0 0.409,0.14 0.476,0.346c0.976,3.005 2.353,7.244 2.353,7.244c0.067,0.206 0.259,0.346 0.476,0.346c-0,-0 4.458,-0 7.617,-0c0.217,-0 0.409,0.139 0.476,0.345c0.067,0.206 -0.007,0.432 -0.182,0.559c-2.556,1.857 -6.162,4.478 -6.162,4.478c-0.176,0.127 -0.249,0.353 -0.182,0.559c-0,-0 1.378,4.239 2.354,7.244c0.067,0.206 -0.007,0.432 -0.182,0.559c-0.175,0.128 -0.412,0.128 -0.588,0c-2.556,-1.857 -6.162,-4.477 -6.162,-4.477c-0.175,-0.127 -0.413,-0.127 -0.588,-0c0,-0 -3.606,2.62 -6.162,4.477c-0.176,0.128 -0.413,0.128 -0.588,0c-0.175,-0.127 -0.249,-0.353 -0.182,-0.559c0.976,-3.005 2.354,-7.244 2.354,-7.244c0.067,-0.206 -0.006,-0.432 -0.182,-0.559c0,-0 -3.606,-2.621 -6.162,-4.478c-0.175,-0.127 -0.249,-0.353 -0.182,-0.559c0.067,-0.206 0.259,-0.345 0.476,-0.345c3.159,-0 7.617,-0 7.617,-0c0.217,-0 0.409,-0.14 0.476,-0.346l2.353,-7.244Z"/></svg>