<svg xmlns="http://www.w3.org/2000/svg" xmlns:xlink="http://www.w3.org/1999/xlink" width="500" zoomAndPan="magnify" viewBox="0 0 375 374.999991" height="500" preserveAspectRatio="xMidYMid meet" version="1.0"><defs><clipPath id="id1"><path d="M 74.757812 90 L 300.507812 90 L 300.507812 346.507812 L 74.757812 346.507812 Z M 74.757812 90 " clip-rule="nonzero"/></clipPath><clipPath id="id2"><path d="M 95 28.507812 L 138 28.507812 L 138 72 L 95 72 Z M 95 28.507812 " clip-rule="nonzero"/></clipPath><clipPath id="id3"><path d="M 143 28.507812 L 184 28.507812 L 184 72 L 143 72 Z M 143 28.507812 " clip-rule="nonzero"/></clipPath><clipPath id="id4"><path d="M 189 28.507812 L 239 28.507812 L 239 72 L 189 72 Z M 189 28.507812 " clip-rule="nonzero"/></clipPath><clipPath id="id5"><path d="M 245 28.507812 L 280 28.507812 L 280 72 L 245 72 Z M 245 28.507812 " clip-rule="nonzero"/></clipPath></defs><g clip-path="url(#id1)"><path fill="#e44d26" d="M 300.441406 91 L 279.898438 320.921875 L 187.535156 346.496094 L 95.433594 320.957031 L 74.910156 91 L 300.4375 90.996094 L 300.445312 90.996094 Z M 300.441406 91 " fill-opacity="1" fill-rule="nonzero"/></g><path fill="#f16529" d="M 187.679688 326.945312 L 262.3125 306.28125 L 279.871094 109.804688 L 187.679688 109.800781 Z M 187.679688 326.945312 " fill-opacity="1" fill-rule="nonzero"/><path fill="#ebebeb" d="M 147.734375 166.207031 L 187.679688 166.207031 L 187.679688 138 L 116.878906 138 L 117.554688 145.570312 L 124.496094 223.289062 L 187.679688 223.289062 L 187.679688 195.09375 L 150.316406 195.09375 Z M 147.734375 166.207031 " fill-opacity="1" fill-rule="nonzero"/><path fill="#ebebeb" d="M 154.097656 237.390625 L 125.753906 237.390625 L 129.710938 281.679688 L 187.546875 297.714844 L 187.679688 297.679688 L 187.679688 268.335938 L 187.554688 268.371094 L 156.109375 259.882812 Z M 154.097656 237.390625 " fill-opacity="1" fill-rule="nonzero"/><g clip-path="url(#id2)"><path fill="#000000" d="M 95.894531 28.507812 L 110.242188 28.507812 L 110.242188 42.667969 L 123.367188 42.667969 L 123.367188 28.507812 L 137.71875 28.507812 L 137.71875 71.386719 L 123.367188 71.386719 L 123.367188 57.027344 L 110.242188 57.027344 L 110.242188 71.386719 L 95.894531 71.386719 Z M 95.894531 28.507812 " fill-opacity="1" fill-rule="nonzero"/></g><g clip-path="url(#id3)"><path fill="#000000" d="M 156.585938 42.726562 L 143.953125 42.726562 L 143.953125 28.507812 L 183.578125 28.507812 L 183.578125 42.726562 L 170.933594 42.726562 L 170.933594 71.386719 L 156.585938 71.386719 Z M 156.585938 42.726562 " fill-opacity="1" fill-rule="nonzero"/></g><g clip-path="url(#id4)"><path fill="#000000" d="M 189.863281 28.507812 L 204.820312 28.507812 L 214.023438 43.574219 L 223.21875 28.507812 L 238.1875 28.507812 L 238.1875 71.386719 L 223.898438 71.386719 L 223.898438 50.132812 L 214.023438 65.378906 L 213.777344 65.378906 L 203.902344 50.132812 L 203.902344 71.386719 L 189.863281 71.386719 Z M 189.863281 28.507812 " fill-opacity="1" fill-rule="nonzero"/></g><g clip-path="url(#id5)"><path fill="#000000" d="M 245.328125 28.507812 L 259.679688 28.507812 L 259.679688 57.214844 L 279.859375 57.214844 L 279.859375 71.386719 L 245.328125 71.386719 Z M 245.328125 28.507812 " fill-opacity="1" fill-rule="nonzero"/></g><path fill="#ffffff" d="M 187.582031 223.289062 L 222.351562 223.289062 L 219.070312 259.867188 L 187.582031 268.363281 L 187.582031 297.699219 L 245.460938 281.679688 L 245.886719 276.910156 L 252.527344 202.660156 L 253.214844 195.09375 L 187.582031 195.09375 Z M 187.582031 223.289062 " fill-opacity="1" fill-rule="nonzero"/><path fill="#ffffff" d="M 187.582031 166.136719 L 187.582031 166.207031 L 255.777344 166.207031 L 256.34375 159.867188 L 257.636719 145.570312 L 258.308594 138 L 187.582031 138 Z M 187.582031 166.136719 " fill-opacity="1" fill-rule="nonzero"/></svg>