<svg xmlns="http://www.w3.org/2000/svg" xmlns:xlink="http://www.w3.org/1999/xlink" width="500" zoomAndPan="magnify" viewBox="0 0 375 374.999991" height="500" preserveAspectRatio="xMidYMid meet" version="1.0"><defs><clipPath id="id1"><path d="M 79.605469 79.605469 L 295.605469 79.605469 L 295.605469 295.605469 L 79.605469 295.605469 Z M 79.605469 79.605469 " clip-rule="nonzero"/></clipPath></defs><g clip-path="url(#id1)"><path fill="#f7df1e" d="M 79.605469 79.605469 L 295.605469 79.605469 L 295.605469 295.605469 L 79.605469 295.605469 Z M 79.605469 79.605469 " fill-opacity="1" fill-rule="nonzero"/></g><path fill="#000000" d="M 136.398438 260.109375 L 152.929688 250.109375 C 156.117188 255.761719 159.019531 260.546875 165.980469 260.546875 C 172.644531 260.546875 176.855469 257.933594 176.855469 247.789062 L 176.855469 178.769531 L 197.148438 178.769531 L 197.148438 248.078125 C 197.148438 269.09375 184.828125 278.671875 166.847656 278.671875 C 150.609375 278.671875 141.183594 270.257812 136.398438 260.109375 " fill-opacity="1" fill-rule="nonzero"/><path fill="#000000" d="M 208.175781 257.933594 L 224.703125 248.363281 C 229.058594 255.46875 234.710938 260.691406 244.710938 260.691406 C 253.121094 260.691406 258.488281 256.488281 258.488281 250.683594 C 258.488281 243.722656 252.980469 241.257812 243.699219 237.199219 L 238.625 235.023438 C 223.980469 228.789062 214.269531 220.96875 214.269531 204.429688 C 214.269531 189.207031 225.859375 177.605469 243.992188 177.605469 C 256.894531 177.605469 266.175781 182.105469 272.839844 193.847656 L 257.039062 204 C 253.5625 197.765625 249.789062 195.300781 243.992188 195.300781 C 238.042969 195.300781 234.273438 199.070312 234.273438 204 C 234.273438 210.089844 238.042969 212.554688 246.742188 216.328125 L 251.816406 218.496094 C 269.070312 225.894531 278.789062 233.429688 278.789062 250.398438 C 278.789062 268.664062 264.4375 278.671875 245.148438 278.671875 C 226.300781 278.671875 214.125 269.675781 208.175781 257.933594 " fill-opacity="1" fill-rule="nonzero"/></svg>